<svg width="0" height="0" class="hidden">
  <symbol fill="none" stroke="currentColor" xmlns="http://www.w3.org/2000/svg" stroke-width="1.5" viewBox="0 0 28.9 23.3" id="handbag">
    <path d="M19.3,8C19.2,7.5,19,6,19,5.5c0-0.1,0-0.3-0.2-0.5c-0.1-0.1-0.3-0.2-0.5-0.2H3.1C2.9,4.8,2.7,4.9,2.6,5   C2.4,5.2,2.4,5.3,2.3,5.5L1,17.5c0,0.1,0,0.2,0,0.3c0,0.1,0.1,0.2,0.2,0.3c0.1,0.1,0.2,0.1,0.3,0.2c0.1,0,0.2,0.1,0.3,0.1   c5.2,0,7.2,0,12.4,0"></path>
    <path d="M6.9,4.8c0-1,0.4-1.9,1.1-2.7C8.7,1.4,9.7,1,10.7,1s1.9,0.4,2.7,1.1c0.7,0.7,1.1,1.7,1.1,2.7"></path>
    <circle cx="20.7" cy="15.1" r="7.2"></circle>
    <path d="M17.9,15.1h5.5" stroke-width="1" stroke-linecap="round"></path>
    <path d="M20.7,12.4v5.5" stroke-width="1" stroke-linecap="round"></path>
  </symbol>
  <symbol xmlns="http://www.w3.org/2000/svg" viewBox="0 0 20 20" id="star">
    <path vector-effect="non-scaling-stroke" d="M18.6845 7.61047C18.6065 7.36549 18.4564 7.14971 18.2539 6.99129C18.0514 6.83287 17.8059 6.73917 17.5493 6.72241L12.9094 6.39771L11.1882 2.0636C11.0951 1.82399 10.9317 1.61811 10.7195 1.47293C10.5074 1.32775 10.2563 1.25004 9.99924 1.25H9.99802C9.74134 1.25046 9.49077 1.32836 9.27908 1.47352C9.06739 1.61867 8.90442 1.82433 8.8115 2.0636L7.06467 6.42273L2.45041 6.72241C2.19384 6.73917 1.94828 6.83287 1.74577 6.99129C1.54326 7.14971 1.39319 7.36549 1.31516 7.61047C1.23284 7.85894 1.22724 8.12643 1.29909 8.37813C1.37094 8.62982 1.51691 8.85404 1.71799 9.02161L5.2678 12.0221L4.21189 16.1755C4.13911 16.4553 4.15249 16.7505 4.25029 17.0226C4.34808 17.2946 4.52573 17.5308 4.75998 17.7002C4.98614 17.8647 5.2566 17.9574 5.53615 17.9661C5.8157 17.9748 6.0914 17.8992 6.32736 17.749L9.98947 15.4291C9.99436 15.4254 9.99924 15.423 10.0102 15.4291L13.9507 17.9254C14.1646 18.0621 14.4148 18.131 14.6685 18.1232C14.9222 18.1153 15.1677 18.0311 15.3728 17.8815C15.585 17.728 15.746 17.5141 15.8347 17.2676C15.9233 17.0212 15.9355 16.7537 15.8696 16.5002L14.7478 11.9629L18.2817 9.02161C18.4828 8.85404 18.6288 8.62982 18.7006 8.37813C18.7725 8.12643 18.7669 7.85894 18.6845 7.61047Z"></path>
  </symbol>
  <symbol fill="none" stroke='currentColor' xmlns="http://www.w3.org/2000/svg" viewBox="0 0 20 20" id="map-pin">
    <path vector-effect="non-scaling-stroke" d="M10 10.625C11.3807 10.625 12.5 9.50571 12.5 8.125C12.5 6.74429 11.3807 5.625 10 5.625C8.61929 5.625 7.5 6.74429 7.5 8.125C7.5 9.50571 8.61929 10.625 10 10.625Z" stroke-linecap="round" stroke-linejoin="round"></path>
    <path vector-effect="non-scaling-stroke" d="M16.25 8.125C16.25 13.75 10 18.125 10 18.125C10 18.125 3.75 13.75 3.75 8.125C3.75 6.4674 4.40848 4.87769 5.58058 3.70558C6.75269 2.53348 8.3424 1.875 10 1.875C11.6576 1.875 13.2473 2.53348 14.4194 3.70558C15.5915 4.87769 16.25 6.4674 16.25 8.125V8.125Z" stroke-linecap="round" stroke-linejoin="round"></path>
  </symbol>
  <symbol fill="none" stroke='currentColor' xmlns="http://www.w3.org/2000/svg" viewBox="0 0 20 20" id="navigation-arrow">
    <path vector-effect="non-scaling-stroke" d="M2.9211 3.71616L7.49962 16.943C7.54273 17.0675 7.62412 17.1753 7.73215 17.2508C7.84017 17.3263 7.96931 17.3657 8.10109 17.3635C8.23288 17.3612 8.36056 17.3173 8.4659 17.238C8.57124 17.1588 8.64884 17.0483 8.6876 16.9224L10.5279 10.9414C10.5579 10.844 10.6112 10.7554 10.6833 10.6833C10.7554 10.6112 10.844 10.5579 10.9414 10.5279L16.9224 8.6876C17.0483 8.64884 17.1588 8.57124 17.238 8.4659C17.3173 8.36057 17.3612 8.23288 17.3635 8.1011C17.3657 7.96931 17.3263 7.84018 17.2508 7.73215C17.1753 7.62412 17.0675 7.54274 16.943 7.49962L3.71616 2.9211C3.60533 2.88274 3.48593 2.87633 3.37162 2.90262C3.25732 2.92891 3.15271 2.98684 3.06978 3.06978C2.98684 3.15271 2.92891 3.25732 2.90262 3.37162C2.87633 3.48593 2.88274 3.60533 2.9211 3.71616V3.71616Z" stroke-linecap="round" stroke-linejoin="round"></path>
  </symbol>
  <symbol stroke='currentColor' xmlns="http://www.w3.org/2000/svg" viewBox="0 0 20 20" id="heart">
    <path vector-effect="non-scaling-stroke" d="M10 16.875C10 16.875 2.1875 12.5 2.1875 7.18751C2.18766 6.24855 2.51301 5.33863 3.10824 4.61244C3.70347 3.88626 4.53183 3.38863 5.45249 3.20418C6.37315 3.01972 7.32928 3.15982 8.15832 3.60066C8.98736 4.04149 9.63814 4.75585 10 5.62227L9.99999 5.62228C10.3619 4.75585 11.0126 4.04149 11.8417 3.60066C12.6707 3.15983 13.6268 3.01973 14.5475 3.20418C15.4682 3.38863 16.2965 3.88625 16.8918 4.61244C17.487 5.33863 17.8123 6.24855 17.8125 7.18751C17.8125 12.5 10 16.875 10 16.875Z" stroke-linecap="round" stroke-linejoin="round"></path>
  </symbol>
  <symbol fill="none" stroke='currentColor' xmlns="http://www.w3.org/2000/svg" viewBox="0 0 20 20" id="megaphone">
    <path vector-effect="non-scaling-stroke" d="M8.125 6.25V15.9155C8.125 16.0184 8.0996 16.1197 8.05105 16.2104C8.0025 16.3011 7.9323 16.3785 7.84669 16.4355L6.98793 17.008C6.90459 17.0636 6.80913 17.0983 6.70957 17.1093C6.61001 17.1202 6.50928 17.1071 6.41587 17.071C6.32245 17.0349 6.23908 16.9768 6.17278 16.9017C6.10648 16.8267 6.05919 16.7368 6.0349 16.6396L5 12.5" stroke-linecap="round" stroke-linejoin="round"></path>
    <path vector-effect="non-scaling-stroke" d="M5 12.4999C4.1712 12.4999 3.37634 12.1706 2.79029 11.5846C2.20424 10.9985 1.875 10.2037 1.875 9.37488C1.875 8.54608 2.20424 7.75123 2.79029 7.16518C3.37634 6.57912 4.1712 6.24988 5 6.24988H8.125C8.125 6.24988 12.379 6.24988 16.4727 2.81648C16.5638 2.73985 16.6748 2.69081 16.7928 2.67513C16.9107 2.65945 17.0307 2.67777 17.1386 2.72796C17.2465 2.77814 17.3379 2.85809 17.4019 2.9584C17.4659 3.05872 17.4999 3.17523 17.5 3.29423V15.4555C17.4999 15.5745 17.4659 15.691 17.4019 15.7914C17.3379 15.8917 17.2465 15.9716 17.1386 16.0218C17.0307 16.072 16.9107 16.0903 16.7928 16.0746C16.6748 16.059 16.5638 16.0099 16.4727 15.9333C12.379 12.4999 8.125 12.4999 8.125 12.4999H5Z" stroke-linecap="round" stroke-linejoin="round"></path>
  </symbol>
  <symbol fill="none" stroke='currentColor' xmlns="http://www.w3.org/2000/svg" viewBox="0 0 20 20" id="caret-bottom">
    <path vector-effect="non-scaling-stroke" d="M16.3,6.9L10,13.1L3.8,6.9" stroke-linecap="round" stroke-linejoin="round"></path>
  </symbol>
  <symbol fill="none" stroke='currentColor' xmlns="http://www.w3.org/2000/svg" viewBox="0 0 20 20" id="caret-left">
    <path vector-effect="non-scaling-stroke" d="M13.1,16.2L6.9,10l6.2-6.3" stroke-linecap="round" stroke-linejoin="round"></path>
  </symbol>
  <symbol fill="none" stroke='currentColor' xmlns="http://www.w3.org/2000/svg" viewBox="0 0 20 20" id="caret-top">
    <path vector-effect="non-scaling-stroke" d="M3.8,13.1L10,6.9l6.3,6.2" stroke-linecap="round" stroke-linejoin="round"></path>
  </symbol>
  <symbol fill="none" stroke='currentColor' xmlns="http://www.w3.org/2000/svg" viewBox="0 0 20 20" id="caret-right">
    <path vector-effect="non-scaling-stroke" d="M6.9,3.7l6.2,6.2l-6.2,6.2" stroke-linecap="round" stroke-linejoin="round"></path>
  </symbol>
  <symbol fill="none" stroke='currentColor' xmlns="http://www.w3.org/2000/svg" viewBox="0 0 20 20" id="minus">
    <path vector-effect="non-scaling-stroke" d="M3.125 10H16.875" stroke-linecap="round" stroke-linejoin="round"></path>
  </symbol>
  <symbol fill="none" stroke='currentColor' xmlns="http://www.w3.org/2000/svg" viewBox="0 0 20 20" id="plus">
    <path vector-effect="non-scaling-stroke" d="M3.125 10H16.875" stroke-linecap="round" stroke-linejoin="round"></path>
    <path vector-effect="non-scaling-stroke" d="M10 3.125V16.875" stroke-linecap="round" stroke-linejoin="round"></path>
  </symbol>
  <symbol fill="none" stroke='currentColor' xmlns="http://www.w3.org/2000/svg" viewBox="0 0 20 20" id="magnifying-glass">
    <path vector-effect="non-scaling-stroke" d="M9.0625 15.625C12.6869 15.625 15.625 12.6869 15.625 9.0625C15.625 5.43813 12.6869 2.5 9.0625 2.5C5.43813 2.5 2.5 5.43813 2.5 9.0625C2.5 12.6869 5.43813 15.625 9.0625 15.625Z" stroke-linecap="round" stroke-linejoin="round"></path>
    <path vector-effect="non-scaling-stroke" d="M13.7031 13.7031L17.5 17.5" stroke-linecap="round" stroke-linejoin="round"></path>
  </symbol>
  <symbol fill="none" stroke='currentColor' xmlns="http://www.w3.org/2000/svg" viewBox="0 0 21 20" id="shopping-cart">
    <path vector-effect="non-scaling-stroke" d="M16 14.375H6.35116C6.20479 14.375 6.06306 14.3236 5.95069 14.2298C5.83831 14.1361 5.76242 14.0058 5.73623 13.8618L3.65013 2.3882C3.62394 2.24419 3.54805 2.11394 3.43568 2.02016C3.3233 1.92637 3.18158 1.875 3.03521 1.875H1.625" stroke-linecap="round" stroke-linejoin="round"></path>
    <path vector-effect="non-scaling-stroke" d="M6.625 17.5C7.48794 17.5 8.1875 16.8004 8.1875 15.9375C8.1875 15.0746 7.48794 14.375 6.625 14.375C5.76206 14.375 5.0625 15.0746 5.0625 15.9375C5.0625 16.8004 5.76206 17.5 6.625 17.5Z" stroke-linecap="round" stroke-linejoin="round"></path>
    <path vector-effect="non-scaling-stroke" d="M16 17.5C16.8629 17.5 17.5625 16.8004 17.5625 15.9375C17.5625 15.0746 16.8629 14.375 16 14.375C15.1371 14.375 14.4375 15.0746 14.4375 15.9375C14.4375 16.8004 15.1371 17.5 16 17.5Z" stroke-linecap="round" stroke-linejoin="round"></path>
    <path vector-effect="non-scaling-stroke" d="M4.125 5H17.7511C17.8427 5 17.9331 5.02011 18.016 5.05891C18.0989 5.09771 18.1723 5.15425 18.231 5.22453C18.2896 5.29482 18.3321 5.37713 18.3555 5.46565C18.3788 5.55417 18.3824 5.64673 18.366 5.7368L17.3433 11.3618C17.3171 11.5058 17.2412 11.6361 17.1289 11.7298C17.0165 11.8236 16.8748 11.875 16.7284 11.875H5.375" stroke-linecap="round" stroke-linejoin="round"></path>
  </symbol>
  <symbol fill="none" stroke='currentColor' xmlns="http://www.w3.org/2000/svg" viewBox="0 0 20 20" id="user">
    <path vector-effect="non-scaling-stroke" d="M10 12.5C12.7614 12.5 15 10.2614 15 7.5C15 4.73858 12.7614 2.5 10 2.5C7.23858 2.5 5 4.73858 5 7.5C5 10.2614 7.23858 12.5 10 12.5Z" stroke-miterlimit="10"></path>
    <path vector-effect="non-scaling-stroke" d="M2.4209 16.8743C3.1893 15.5442 4.29419 14.4398 5.62456 13.672C6.95493 12.9042 8.46393 12.5 9.99997 12.5C11.536 12.5 13.045 12.9043 14.3754 13.6721C15.7057 14.44 16.8106 15.5444 17.579 16.8744" stroke-linecap="round" stroke-linejoin="round"></path>
  </symbol>
  <symbol fill="currentColor" stroke='none' xmlns="http://www.w3.org/2000/svg" viewBox="0 0 20 20" id="dots-nine">
    <path d="M10.1455 11.6455C10.9739 11.6455 11.6455 10.9739 11.6455 10.1455C11.6455 9.31708 10.9739 8.64551 10.1455 8.64551C9.31708 8.64551 8.64551 9.31708 8.64551 10.1455C8.64551 10.9739 9.31708 11.6455 10.1455 11.6455Z"></path>
    <path d="M10.1455 6.33301C10.9739 6.33301 11.6455 5.66144 11.6455 4.83301C11.6455 4.00458 10.9739 3.33301 10.1455 3.33301C9.31708 3.33301 8.64551 4.00458 8.64551 4.83301C8.64551 5.66144 9.31708 6.33301 10.1455 6.33301Z"></path>
    <path d="M10.1455 16.958C10.9739 16.958 11.6455 16.2864 11.6455 15.458C11.6455 14.6296 10.9739 13.958 10.1455 13.958C9.31708 13.958 8.64551 14.6296 8.64551 15.458C8.64551 16.2864 9.31708 16.958 10.1455 16.958Z"></path>
    <path d="M4.83301 11.6455C5.66144 11.6455 6.33301 10.9739 6.33301 10.1455C6.33301 9.31708 5.66144 8.64551 4.83301 8.64551C4.00458 8.64551 3.33301 9.31708 3.33301 10.1455C3.33301 10.9739 4.00458 11.6455 4.83301 11.6455Z"></path>
    <path d="M4.83301 6.33301C5.66144 6.33301 6.33301 5.66144 6.33301 4.83301C6.33301 4.00458 5.66144 3.33301 4.83301 3.33301C4.00458 3.33301 3.33301 4.00458 3.33301 4.83301C3.33301 5.66144 4.00458 6.33301 4.83301 6.33301Z"></path>
    <path d="M4.83301 16.958C5.66144 16.958 6.33301 16.2864 6.33301 15.458C6.33301 14.6296 5.66144 13.958 4.83301 13.958C4.00458 13.958 3.33301 14.6296 3.33301 15.458C3.33301 16.2864 4.00458 16.958 4.83301 16.958Z"></path>
    <path d="M15.458 11.6455C16.2864 11.6455 16.958 10.9739 16.958 10.1455C16.958 9.31708 16.2864 8.64551 15.458 8.64551C14.6296 8.64551 13.958 9.31708 13.958 10.1455C13.958 10.9739 14.6296 11.6455 15.458 11.6455Z"></path>
    <path d="M15.458 6.33301C16.2864 6.33301 16.958 5.66144 16.958 4.83301C16.958 4.00458 16.2864 3.33301 15.458 3.33301C14.6296 3.33301 13.958 4.00458 13.958 4.83301C13.958 5.66144 14.6296 6.33301 15.458 6.33301Z"></path>
    <path d="M15.458 16.958C16.2864 16.958 16.958 16.2864 16.958 15.458C16.958 14.6296 16.2864 13.958 15.458 13.958C14.6296 13.958 13.958 14.6296 13.958 15.458C13.958 16.2864 14.6296 16.958 15.458 16.958Z"></path>
  </symbol>
  <symbol fill="none" stroke='currentColor' xmlns="http://www.w3.org/2000/svg" viewBox="0 0 20 20" id="equals">
    <path vector-effect="non-scaling-stroke" d="M3.12744 12.5H16.8774" stroke-linecap="round" stroke-linejoin="round"></path>
    <path vector-effect="non-scaling-stroke" d="M3.12744 7.5H16.8774" stroke-linecap="round" stroke-linejoin="round"></path>
  </symbol>
  <symbol fill="none" stroke='currentColor' xmlns="http://www.w3.org/2000/svg" viewBox="0 0 20 20" id="funnel">
    <path vector-effect="non-scaling-stroke" d="M3.2876 3.75H16.7119C16.833 3.75 16.9515 3.78517 17.0529 3.85124C17.1544 3.9173 17.2345 4.01142 17.2835 4.12215C17.3325 4.23288 17.3482 4.35546 17.3289 4.47498C17.3095 4.5945 17.2558 4.70583 17.1744 4.79542L12.0373 10.4462C11.9327 10.5613 11.8748 10.7112 11.8748 10.8666V15.2905C11.8748 15.3934 11.8494 15.4947 11.8008 15.5854C11.7522 15.6761 11.6821 15.7535 11.5964 15.8105L9.09644 17.4772C9.00232 17.54 8.89292 17.576 8.77993 17.5814C8.66694 17.5869 8.55458 17.5616 8.45484 17.5082C8.3551 17.4548 8.27172 17.3754 8.21359 17.2784C8.15546 17.1813 8.12475 17.0703 8.12475 16.9572V10.8666C8.12475 10.7112 8.0668 10.5613 7.96222 10.4462L2.82514 4.79542C2.74369 4.70583 2.69002 4.5945 2.67065 4.47498C2.65128 4.35546 2.66704 4.23288 2.71603 4.12215C2.76501 4.01142 2.8451 3.9173 2.94657 3.85124C3.04804 3.78517 3.16652 3.75 3.2876 3.75V3.75Z" stroke-linecap="round" stroke-linejoin="round"></path>
  </symbol>
  <symbol fill="none" stroke='currentColor' xmlns="http://www.w3.org/2000/svg" viewBox="0 0 20 20" id="spinner">
    <path vector-effect="non-scaling-stroke" d="M10 2.5V5" stroke-linecap="round" stroke-linejoin="round"></path>
    <path vector-effect="non-scaling-stroke" d="M17.5 10H15" stroke-linecap="round" stroke-linejoin="round"></path>
    <path vector-effect="non-scaling-stroke" d="M15.3034 15.3029L13.5356 13.5352" stroke-linecap="round" stroke-linejoin="round"></path>
    <path vector-effect="non-scaling-stroke" d="M10 17.5V15" stroke-linecap="round" stroke-linejoin="round"></path>
    <path vector-effect="non-scaling-stroke" d="M4.69678 15.3029L6.46454 13.5352" stroke-linecap="round" stroke-linejoin="round"></path>
    <path vector-effect="non-scaling-stroke" d="M2.5 10H5" stroke-linecap="round" stroke-linejoin="round"></path>
    <path vector-effect="non-scaling-stroke" d="M4.69678 4.69629L6.46454 6.46406" stroke-linecap="round" stroke-linejoin="round"></path>
  </symbol>

  <symbol fill="none" stroke='currentColor' xmlns="http://www.w3.org/2000/svg" viewBox="0 0 20 20" id="arrow-up-right">
    <path vector-effect="non-scaling-stroke" d="M5 15L15 5" stroke-linecap="round" stroke-linejoin="round"></path>
    <path vector-effect="non-scaling-stroke" d="M6.875 5H15V13.125" stroke-linecap="round" stroke-linejoin="round"></path>
  </symbol>
  <symbol fill="none" stroke='currentColor' xmlns="http://www.w3.org/2000/svg" viewBox="0 0 20 20" id="bookmarks-simple">
    <path vector-effect="non-scaling-stroke" d="M13.125 17.5L8.74942 14.375L4.375 17.5V5.625C4.375 5.45924 4.44085 5.30027 4.55806 5.18306C4.67527 5.06585 4.83424 5 5 5H12.5C12.6658 5 12.8247 5.06585 12.9419 5.18306C13.0592 5.30027 13.125 5.45924 13.125 5.625V17.5Z" stroke-linecap="round" stroke-linejoin="round"></path>
    <path vector-effect="non-scaling-stroke" d="M6.875 2.5H15C15.1658 2.5 15.3247 2.56585 15.4419 2.68306C15.5592 2.80027 15.625 2.95924 15.625 3.125V15" stroke-linecap="round" stroke-linejoin="round"></path>
  </symbol>
  <symbol fill="none" stroke='currentColor' xmlns="http://www.w3.org/2000/svg" viewBox="0 0 20 20" id="check-round">
    <path vector-effect="non-scaling-stroke" d="M13.4375 8.125L8.85414 12.5L6.5625 10.3125" stroke-linecap="round" stroke-linejoin="round"></path>
    <path vector-effect="non-scaling-stroke" d="M10 17.5C14.1421 17.5 17.5 14.1421 17.5 10C17.5 5.85786 14.1421 2.5 10 2.5C5.85786 2.5 2.5 5.85786 2.5 10C2.5 14.1421 5.85786 17.5 10 17.5Z" stroke-linecap="round" stroke-linejoin="round"></path>
  </symbol>
  <symbol fill="none" stroke='currentColor' xmlns="http://www.w3.org/2000/svg" viewBox="0 0 20 20" id="check">
    <path vector-effect="non-scaling-stroke" d="M16.875 5.62537L8.125 14.375L3.75 10.0004" stroke-linecap="round" stroke-linejoin="round"></path>
  </symbol>
  <symbol fill="none" stroke='currentColor' xmlns="http://www.w3.org/2000/svg" viewBox="0 0 20 20" id="envelope">
    <path vector-effect="non-scaling-stroke" d="M2.5 4.375H17.5V15C17.5 15.1658 17.4342 15.3247 17.3169 15.4419C17.1997 15.5592 17.0408 15.625 16.875 15.625H3.125C2.95924 15.625 2.80027 15.5592 2.68306 15.4419C2.56585 15.3247 2.5 15.1658 2.5 15V4.375Z" stroke-linecap="round" stroke-linejoin="round"></path>
    <path vector-effect="non-scaling-stroke" d="M17.5 4.375L10 11.25L2.5 4.375" stroke-linecap="round" stroke-linejoin="round"></path>
  </symbol>
  <symbol fill="none" stroke='currentColor' xmlns="http://www.w3.org/2000/svg" viewBox="0 0 20 20" id="lock-laminated">
    <path vector-effect="non-scaling-stroke" d="M3.125 9.375H16.875" stroke-linecap="round" stroke-linejoin="round"></path>
    <path vector-effect="non-scaling-stroke" d="M3.125 11.875H16.875" stroke-linecap="round" stroke-linejoin="round"></path>
    <path vector-effect="non-scaling-stroke" d="M3.125 14.375H16.875" stroke-linecap="round" stroke-linejoin="round"></path>
    <path vector-effect="non-scaling-stroke" d="M16.25 6.875H3.75C3.40482 6.875 3.125 7.15482 3.125 7.5V16.25C3.125 16.5952 3.40482 16.875 3.75 16.875H16.25C16.5952 16.875 16.875 16.5952 16.875 16.25V7.5C16.875 7.15482 16.5952 6.875 16.25 6.875Z" stroke-linecap="round" stroke-linejoin="round"></path>
    <path vector-effect="non-scaling-stroke" d="M7.1875 6.875V4.0625C7.1875 3.31658 7.48382 2.60121 8.01126 2.07376C8.53871 1.54632 9.25408 1.25 10 1.25C10.7459 1.25 11.4613 1.54632 11.9887 2.07376C12.5162 2.60121 12.8125 3.31658 12.8125 4.0625V6.875" stroke-linecap="round" stroke-linejoin="round"></path>
  </symbol>
  <symbol fill="none" stroke='currentColor' xmlns="http://www.w3.org/2000/svg" viewBox="0 0 20 20" id="lock-laminated">
    <path vector-effect="non-scaling-stroke" d="M10 10.625C11.3807 10.625 12.5 9.50571 12.5 8.125C12.5 6.74429 11.3807 5.625 10 5.625C8.61929 5.625 7.5 6.74429 7.5 8.125C7.5 9.50571 8.61929 10.625 10 10.625Z" stroke-linecap="round" stroke-linejoin="round"></path>
    <path vector-effect="non-scaling-stroke" d="M16.25 8.125C16.25 13.75 10 18.125 10 18.125C10 18.125 3.75 13.75 3.75 8.125C3.75 6.4674 4.40848 4.87769 5.58058 3.70558C6.75269 2.53348 8.3424 1.875 10 1.875C11.6576 1.875 13.2473 2.53348 14.4194 3.70558C15.5915 4.87769 16.25 6.4674 16.25 8.125V8.125Z" stroke-linecap="round" stroke-linejoin="round"></path>
  </symbol>
  <symbol fill="none" stroke='currentColor' xmlns="http://www.w3.org/2000/svg" viewBox="0 0 20 20" id="phone">
    <path vector-effect="non-scaling-stroke" d="M7.22471 9.75109C7.87302 11.0765 8.94739 12.146 10.2758 12.7883C10.3729 12.8343 10.4804 12.8543 10.5877 12.8462C10.6949 12.838 10.7982 12.8021 10.8874 12.742L12.8433 11.4377C12.9298 11.3801 13.0293 11.3449 13.1328 11.3354C13.2364 11.3259 13.3407 11.3423 13.4362 11.3833L17.0954 12.9515C17.2197 13.0043 17.3234 13.096 17.3911 13.213C17.4587 13.3299 17.4865 13.4656 17.4702 13.5997C17.3546 14.5047 16.913 15.3365 16.2282 15.9394C15.5434 16.5422 14.6624 16.8748 13.75 16.8749C10.9321 16.8749 8.22956 15.7555 6.23699 13.7629C4.24442 11.7703 3.125 9.06782 3.125 6.24989C3.12505 5.33753 3.45765 4.45647 4.06053 3.77167C4.66341 3.08688 5.49523 2.64531 6.40023 2.52966C6.53431 2.51343 6.67002 2.54122 6.78693 2.60883C6.90384 2.67644 6.99561 2.78022 7.04841 2.90452L8.61798 6.56685C8.65858 6.66158 8.67512 6.76488 8.66614 6.86755C8.65715 6.97022 8.62291 7.06908 8.56647 7.15531L7.26676 9.14123C7.2076 9.23056 7.17263 9.33372 7.16526 9.44061C7.15789 9.5475 7.17837 9.65448 7.22471 9.75109V9.75109Z" stroke-linecap="round" stroke-linejoin="round"></path>
  </symbol>
  <symbol fill="none" stroke='currentColor' xmlns="http://www.w3.org/2000/svg" viewBox="0 0 20 20" id="eye">
    <path vector-effect="non-scaling-stroke" d="M10 4.37451C3.75 4.37451 1.25 10.0001 1.25 10.0001C1.25 10.0001 3.75 15.6245 10 15.6245C16.25 15.6245 18.75 10.0001 18.75 10.0001C18.75 10.0001 16.25 4.37451 10 4.37451Z" stroke-linecap="round" stroke-linejoin="round"></path>
    <path vector-effect="non-scaling-stroke" d="M10 13.125C11.7259 13.125 13.125 11.7259 13.125 10C13.125 8.27411 11.7259 6.875 10 6.875C8.27411 6.875 6.875 8.27411 6.875 10C6.875 11.7259 8.27411 13.125 10 13.125Z" stroke-linecap="round" stroke-linejoin="round"></path>
  </symbol>
  <symbol fill="none" stroke='currentColor' xmlns="http://www.w3.org/2000/svg" viewBox="0 0 20 20" id="shopping-bag-open">
    <path vector-effect="non-scaling-stroke" d="M16.875 3.75H3.125C2.77982 3.75 2.5 4.02982 2.5 4.375V15.625C2.5 15.9702 2.77982 16.25 3.125 16.25H16.875C17.2202 16.25 17.5 15.9702 17.5 15.625V4.375C17.5 4.02982 17.2202 3.75 16.875 3.75Z" stroke-linecap="round" stroke-linejoin="round"></path>
    <path vector-effect="non-scaling-stroke" d="M2.5 6.25H17.5" stroke-linecap="round" stroke-linejoin="round"></path>
    <path vector-effect="non-scaling-stroke" d="M13.125 8.75C13.125 9.5788 12.7958 10.3737 12.2097 10.9597C11.6237 11.5458 10.8288 11.875 10 11.875C9.1712 11.875 8.37634 11.5458 7.79029 10.9597C7.20424 10.3737 6.875 9.5788 6.875 8.75" stroke-linecap="round" stroke-linejoin="round"></path>
  </symbol>
  <symbol fill="none" stroke='currentColor' xmlns="http://www.w3.org/2000/svg" viewBox="0 0 20 20" id="close">
    <path vector-effect="non-scaling-stroke" d="M15.625 4.375L4.375 15.625" stroke-linecap="round" stroke-linejoin="round"></path>
    <path vector-effect="non-scaling-stroke" d="M15.625 15.625L4.375 4.375" stroke-linecap="round" stroke-linejoin="round"></path>
  </symbol>
  <symbol fill="none" stroke='currentColor' xmlns="http://www.w3.org/2000/svg" viewBox="0 0 20 20" id="percent">
    <path vector-effect="non-scaling-stroke" d="M15.625 4.375L4.375 15.625" stroke-linecap="round" stroke-linejoin="round"></path>
    <path vector-effect="non-scaling-stroke" d="M5.9375 8.125C7.14562 8.125 8.125 7.14562 8.125 5.9375C8.125 4.72938 7.14562 3.75 5.9375 3.75C4.72938 3.75 3.75 4.72938 3.75 5.9375C3.75 7.14562 4.72938 8.125 5.9375 8.125Z" stroke-miterlimit="10"></path>
    <path vector-effect="non-scaling-stroke" d="M14.0625 16.25C15.2706 16.25 16.25 15.2706 16.25 14.0625C16.25 12.8544 15.2706 11.875 14.0625 11.875C12.8544 11.875 11.875 12.8544 11.875 14.0625C11.875 15.2706 12.8544 16.25 14.0625 16.25Z" stroke-miterlimit="10"></path>
  </symbol>
  <symbol fill="none" stroke='currentColor' xmlns="http://www.w3.org/2000/svg" viewBox="0 0 20 20" id="trash">
    <path vector-effect="non-scaling-stroke" d="M16.875 4.375L3.125 4.37501" stroke-linecap="round" stroke-linejoin="round"></path>
    <path vector-effect="non-scaling-stroke" d="M8.125 8.125V13.125" stroke-linecap="round" stroke-linejoin="round"></path>
    <path vector-effect="non-scaling-stroke" d="M11.875 8.125V13.125" stroke-linecap="round" stroke-linejoin="round"></path>
    <path vector-effect="non-scaling-stroke" d="M15.625 4.375V16.25C15.625 16.4158 15.5592 16.5747 15.4419 16.6919C15.3247 16.8092 15.1658 16.875 15 16.875H5C4.83424 16.875 4.67527 16.8092 4.55806 16.6919C4.44085 16.5747 4.375 16.4158 4.375 16.25V4.375" stroke-linecap="round" stroke-linejoin="round"></path>
    <path vector-effect="non-scaling-stroke" d="M13.125 4.375V3.125C13.125 2.79348 12.9933 2.47554 12.7589 2.24112C12.5245 2.0067 12.2065 1.875 11.875 1.875H8.125C7.79348 1.875 7.47554 2.0067 7.24112 2.24112C7.0067 2.47554 6.875 2.79348 6.875 3.125V4.375" stroke-linecap="round" stroke-linejoin="round"></path>
  </symbol>
  <symbol stroke='currentColor' xmlns="http://www.w3.org/2000/svg" viewBox="0 0 20 20" id="thumbs-up">
    <path vector-effect="non-scaling-stroke" d="M2.49902 8.125H6.24902V16.25H2.49902C2.33326 16.25 2.17429 16.1842 2.05708 16.0669C1.93987 15.9497 1.87402 15.7908 1.87402 15.625V8.75C1.87402 8.58424 1.93987 8.42527 2.05708 8.30806C2.17429 8.19085 2.33326 8.125 2.49902 8.125V8.125Z" stroke-linecap="round" stroke-linejoin="round"></path>
    <path vector-effect="non-scaling-stroke" d="M6.24902 8.125L9.37402 1.875C9.70233 1.875 10.0274 1.93966 10.3307 2.0653C10.634 2.19094 10.9096 2.37509 11.1418 2.60723C11.3739 2.83938 11.5581 3.11498 11.6837 3.41829C11.8094 3.72161 11.874 4.0467 11.874 4.375V6.25H16.708C16.8853 6.25 17.0605 6.28769 17.2221 6.36058C17.3836 6.43346 17.5278 6.53987 17.6451 6.67275C17.7624 6.80562 17.8501 6.96192 17.9024 7.13128C17.9547 7.30063 17.9704 7.47917 17.9484 7.65504L17.0109 15.155C16.9731 15.4574 16.8262 15.7355 16.5978 15.9371C16.3694 16.1387 16.0752 16.25 15.7705 16.25H6.24902" stroke-linecap="round" stroke-linejoin="round"></path>
  </symbol>
  <symbol fill="none" stroke='currentColor' xmlns="http://www.w3.org/2000/svg" viewBox="0 0 20 20" id="calendar-blank">
    <path vector-effect="non-scaling-stroke" d="M16.25 3.125H3.75C3.40482 3.125 3.125 3.40482 3.125 3.75V16.25C3.125 16.5952 3.40482 16.875 3.75 16.875H16.25C16.5952 16.875 16.875 16.5952 16.875 16.25V3.75C16.875 3.40482 16.5952 3.125 16.25 3.125Z" stroke-linecap="round" stroke-linejoin="round"></path>
    <path vector-effect="non-scaling-stroke" d="M13.75 1.875V4.375" stroke-linecap="round" stroke-linejoin="round"></path>
    <path vector-effect="non-scaling-stroke" d="M6.25 1.875V4.375" stroke-linecap="round" stroke-linejoin="round"></path>
    <path vector-effect="non-scaling-stroke" d="M3.125 6.875H16.875" stroke-linecap="round" stroke-linejoin="round"></path>
  </symbol>
  <symbol fill="none" stroke='currentColor' xmlns="http://www.w3.org/2000/svg" viewBox="0 0 20 20" id="chat-teardrop">
    <path vector-effect="non-scaling-stroke" d="M10.3125 16.8745H3.72396C3.56511 16.8745 3.41276 16.8114 3.30043 16.6991C3.1881 16.5868 3.125 16.4344 3.125 16.2756V9.687C3.125 8.74312 3.31091 7.80849 3.67211 6.93647C4.03332 6.06444 4.56275 5.2721 5.23017 4.60468C5.89759 3.93726 6.68993 3.40783 7.56195 3.04663C8.43398 2.68542 9.36861 2.49951 10.3125 2.49951H10.3125C11.2564 2.49951 12.191 2.68542 13.063 3.04663C13.9351 3.40783 14.7274 3.93726 15.3948 4.60468C16.0623 5.2721 16.5917 6.06445 16.9529 6.93647C17.3141 7.8085 17.5 8.74314 17.5 9.68701V9.68703C17.5 11.5933 16.7427 13.4214 15.3948 14.7693C14.0469 16.1173 12.2188 16.8745 10.3125 16.8745Z" stroke-linecap="round" stroke-linejoin="round"></path>
  </symbol>
  <symbol fill="currentColor" stroke="none" xmlns="http://www.w3.org/2000/svg" viewBox="0 0 24 24" id="box">
    <path d="M11.994 20.9996C11.9347 20.9996 11.8748 20.9854 11.8207 20.9569L3.20175 16.4569C3.078 16.3924 3 16.2641 3 16.1246V7.68713C3 7.55738 3.0675 7.43663 3.17775 7.36838C3.288 7.30013 3.42675 7.29413 3.54225 7.35188L12.1613 11.6644C12.288 11.7281 12.3682 11.8579 12.3682 11.9996V20.6246C12.3682 20.7559 12.3 20.8774 12.1875 20.9456C12.129 20.9816 12.0615 20.9996 11.994 20.9996ZM3.75 15.8974L11.619 20.0059V12.2314L3.75 8.29388V15.8974Z"></path>
    <path d="M12.0059 21.0002C11.9384 21.0002 11.8709 20.9822 11.8116 20.9462C11.6999 20.8779 11.6309 20.7564 11.6309 20.6252V12.0002C11.6309 11.8584 11.7111 11.7287 11.8379 11.6649L20.4569 7.35243C20.5716 7.29393 20.7111 7.29993 20.8214 7.36893C20.9324 7.43718 20.9999 7.55793 20.9999 7.68768V16.1252C20.9999 16.2647 20.9219 16.3929 20.7981 16.4574L12.1791 20.9574C12.1251 20.9859 12.0651 21.0002 12.0059 21.0002ZM12.3809 12.2319V20.0064L20.2499 15.8979V8.29443L12.3809 12.2319ZM20.6249 16.1252H20.6324H20.6249Z"></path>
    <path d="M3.3748 8.06408C3.2368 8.06408 3.1048 7.98833 3.0388 7.85708C2.9458 7.67183 3.02155 7.44683 3.2068 7.35383L11.8378 3.04133C11.9436 2.98883 12.0681 2.98883 12.1731 3.04133L20.7921 7.35383C20.9773 7.44683 21.0523 7.67183 20.9601 7.85708C20.8671 8.04233 20.6428 8.11658 20.4568 8.02508L12.0058 3.79583L3.5428 8.02433C3.4888 8.05133 3.4318 8.06408 3.3748 8.06408Z"></path>
    <path d="M16.5 14.2501C16.293 14.2501 16.125 14.0821 16.125 13.8751V9.98187L7.71304 5.77287C7.52779 5.68062 7.45279 5.45487 7.54579 5.26962C7.63879 5.08437 7.86379 5.01012 8.04904 5.10162L16.668 9.41412C16.7948 9.47862 16.875 9.60837 16.875 9.75012V13.8751C16.875 14.0821 16.707 14.2501 16.5 14.2501Z"></path>
  </symbol>
  <symbol fill="none" stroke='currentColor' xmlns="http://www.w3.org/2000/svg" viewBox="0 0 20 20" id="edit">
    <path vector-effect="non-scaling-stroke" d="M16.667 12.2166V16.6666C16.667 17.1086 16.4914 17.5325 16.1788 17.8451C15.8663 18.1577 15.4424 18.3333 15.0003 18.3333H3.33366C2.89163 18.3333 2.46771 18.1577 2.15515 17.8451C1.84259 17.5325 1.66699 17.1086 1.66699 16.6666V4.99992C1.66699 4.55789 1.84259 4.13397 2.15515 3.82141C2.46771 3.50885 2.89163 3.33325 3.33366 3.33325H7.78366" stroke-linecap="round" stroke-linejoin="round"></path>
    <path vector-effect="non-scaling-stroke" d="M15.0003 1.66675L18.3337 5.00008L10.0003 13.3334H6.66699V10.0001L15.0003 1.66675Z" stroke-linecap="round" stroke-linejoin="round"></path>
  </symbol>
</svg>