<svg width="32" height="26" viewBox="0 0 32 26" fill="none" xmlns="http://www.w3.org/2000/svg">
<path d="M5.82232 25.8565V24.1349C5.83126 24 5.81446 23.8646 5.77292 23.7365C5.73138 23.6084 5.66591 23.4903 5.58031 23.3888C5.49472 23.2874 5.3907 23.2047 5.27428 23.1456C5.15787 23.0865 5.03138 23.0521 4.90215 23.0445H4.77855C4.597 23.032 4.41558 23.0707 4.25324 23.1566C4.0909 23.2424 3.95358 23.3721 3.85563 23.5323C3.76634 23.3769 3.63858 23.2496 3.48582 23.1638C3.33305 23.0779 3.16095 23.0367 2.98765 23.0445C2.83658 23.0365 2.68614 23.0699 2.55123 23.1414C2.41633 23.2128 2.30164 23.3199 2.21855 23.4519V23.1133H1.6582V25.8565H2.23503V24.3472C2.2242 24.2635 2.22925 24.1785 2.2499 24.0969C2.27054 24.0153 2.30637 23.9387 2.35534 23.8715C2.40432 23.8044 2.46547 23.748 2.53532 23.7055C2.60516 23.6631 2.68233 23.6354 2.76241 23.6241C2.80078 23.6204 2.8394 23.6204 2.87777 23.6241C3.25683 23.6241 3.4491 23.8824 3.4491 24.3472V25.8737H4.02593V24.3472C4.00489 24.1775 4.0492 24.006 4.14912 23.8704C4.24904 23.7349 4.39639 23.6463 4.5588 23.6241C4.59537 23.621 4.63211 23.621 4.66868 23.6241C5.05872 23.6241 5.2455 23.8824 5.2455 24.3472V25.8737L5.82232 25.8565ZM14.3566 23.1133H13.4172V22.2812H12.8403V23.1133H12.3185V23.6585H12.8513V24.9211C12.8513 25.5581 13.0876 25.9369 13.7633 25.9369C14.0157 25.9378 14.2633 25.8642 14.4774 25.7245L14.3126 25.2138C14.1594 25.3092 13.9855 25.3626 13.8072 25.3687C13.5325 25.3687 13.4282 25.1851 13.4282 24.9096V23.6585H14.3621L14.3566 23.1133ZM19.2294 23.0445C19.0901 23.0402 18.9522 23.0753 18.8304 23.146C18.7086 23.2167 18.6073 23.3204 18.5372 23.4462V23.1133H17.9713V25.8565H18.5427V24.3185C18.5427 23.8651 18.7294 23.6126 19.092 23.6126C19.2142 23.6108 19.3356 23.6342 19.4491 23.6815L19.6249 23.1076C19.4944 23.0588 19.357 23.0336 19.2184 23.033L19.2294 23.0445ZM11.8625 23.3314C11.539 23.1307 11.1673 23.0311 10.7913 23.0445C10.1265 23.0445 9.69254 23.3773 9.69254 23.9225C9.69254 24.3702 10.0112 24.6456 10.599 24.7317L10.8737 24.7719C11.1868 24.8178 11.3351 24.9039 11.3351 25.0588C11.3351 25.2712 11.1264 25.3917 10.7363 25.3917C10.4226 25.4009 10.115 25.2999 9.86284 25.1047L9.58816 25.5696C9.92088 25.8125 10.3196 25.9373 10.7253 25.9254C11.4834 25.9254 11.9229 25.5524 11.9229 25.0301C11.9229 24.5079 11.5768 24.2955 11.0055 24.2095L10.7308 24.1693C10.4836 24.1349 10.2858 24.0832 10.2858 23.8996C10.2858 23.7159 10.4726 23.5782 10.7858 23.5782C11.0752 23.5816 11.3589 23.6626 11.6098 23.8135L11.8625 23.3314ZM27.1648 23.0445C27.0255 23.0402 26.8877 23.0753 26.7659 23.146C26.644 23.2167 26.5427 23.3204 26.4726 23.4462V23.1133H25.9068V25.8565H26.4781V24.3185C26.4781 23.8651 26.6649 23.6126 27.0275 23.6126C27.1497 23.6108 27.271 23.6342 27.3846 23.6815L27.5603 23.1076C27.4299 23.0588 27.2924 23.0336 27.1538 23.033L27.1648 23.0445ZM19.8034 24.4792C19.7908 24.8464 19.9183 25.2037 20.1578 25.4727C20.3973 25.7418 20.7292 25.9005 21.0807 25.9139H21.2043C21.5473 25.9321 21.8845 25.8154 22.1492 25.5868L21.8745 25.1047C21.677 25.2621 21.4362 25.3486 21.1878 25.3515C20.9766 25.3337 20.7796 25.2334 20.636 25.0707C20.4923 24.908 20.4126 24.6948 20.4126 24.4735C20.4126 24.2521 20.4923 24.0389 20.636 23.8762C20.7796 23.7135 20.9766 23.6133 21.1878 23.5954C21.4362 23.5983 21.677 23.6848 21.8745 23.8422L22.1492 23.3601C21.8845 23.1315 21.5473 23.0148 21.2043 23.033C21.0302 23.0225 20.8559 23.048 20.6913 23.108C20.5266 23.1679 20.3749 23.2612 20.2448 23.3825C20.1147 23.5037 20.0088 23.6506 19.933 23.8146C19.8573 23.9787 19.8133 24.1567 19.8034 24.3386C19.8034 24.3816 19.8034 24.4247 19.8034 24.4677V24.4792ZM25.1542 24.4792V23.1133H24.5828V23.4462C24.4858 23.3158 24.3605 23.2113 24.2172 23.1415C24.0739 23.0716 23.9168 23.0384 23.7588 23.0445C23.3946 23.0445 23.0452 23.1956 22.7877 23.4647C22.5301 23.7338 22.3854 24.0987 22.3854 24.4792C22.3854 24.8597 22.5301 25.2246 22.7877 25.4937C23.0452 25.7628 23.3946 25.9139 23.7588 25.9139C23.9168 25.92 24.0739 25.8868 24.2172 25.8169C24.3605 25.7471 24.4858 25.6426 24.5828 25.5122V25.8451H25.1542V24.4792ZM23.0282 24.4792C23.0364 24.2638 23.1252 24.0604 23.2754 23.9126C23.4257 23.7649 23.6253 23.6845 23.8316 23.6888C24.0379 23.6931 24.2344 23.7818 24.3788 23.9357C24.5233 24.0897 24.6042 24.2966 24.6042 24.5122C24.6042 24.7277 24.5233 24.9347 24.3788 25.0887C24.2344 25.2426 24.0379 25.3312 23.8316 25.3356C23.6253 25.3399 23.4257 25.2595 23.2754 25.1118C23.1252 24.964 23.0364 24.7606 23.0282 24.5452C23.0282 24.5222 23.0282 24.5022 23.0282 24.4792ZM16.1337 23.0445C15.7695 23.0498 15.4222 23.2061 15.1682 23.4789C14.9143 23.7517 14.7745 24.1188 14.7796 24.4993C14.7847 24.8798 14.9343 25.2426 15.1954 25.5079C15.4566 25.7732 15.8079 25.9192 16.1722 25.9139C16.5702 25.9373 16.9621 25.8042 17.2709 25.5409L16.9962 25.099C16.7793 25.2807 16.5106 25.3817 16.2326 25.3859C16.0438 25.4029 15.856 25.3422 15.7093 25.2169C15.5626 25.0915 15.4685 24.9112 15.447 24.7145H17.3973V24.4849C17.3973 23.6241 16.8864 23.0502 16.1502 23.0502L16.1337 23.0445ZM16.1337 23.5782C16.2192 23.5763 16.3042 23.592 16.3839 23.6244C16.4636 23.6569 16.5364 23.7054 16.5981 23.7672C16.6599 23.829 16.7093 23.9029 16.7437 23.9847C16.7781 24.0665 16.7967 24.1546 16.7985 24.2439H15.4251C15.435 24.0597 15.5136 23.8869 15.644 23.7625C15.7744 23.638 15.9462 23.5719 16.1228 23.5782H16.1337ZM30.4472 24.4849V22.0115H29.8979V23.4462C29.8008 23.3158 29.6755 23.2113 29.5322 23.1415C29.389 23.0716 29.2318 23.0384 29.0738 23.0445C28.7096 23.0445 28.3603 23.1956 28.1027 23.4647C27.8451 23.7338 27.7004 24.0987 27.7004 24.4792C27.7004 24.8597 27.8451 25.2246 28.1027 25.4937C28.3603 25.7628 28.7096 25.9139 29.0738 25.9139C29.2318 25.92 29.389 25.8868 29.5322 25.8169C29.6755 25.7471 29.8008 25.6426 29.8979 25.5122V25.8451H30.4472V24.4849ZM31.4003 25.4577C31.4521 25.4578 31.5028 25.4733 31.5465 25.5022C31.5903 25.5311 31.6253 25.5724 31.6476 25.6212C31.6615 25.6547 31.6686 25.6909 31.6686 25.7274C31.6686 25.7639 31.6615 25.8001 31.6476 25.8336C31.6199 25.8992 31.5685 25.9507 31.5047 25.977C31.4719 25.9924 31.4363 26.0002 31.4003 26C31.3483 25.9996 31.2974 25.9837 31.2536 25.9543C31.2099 25.9248 31.175 25.8829 31.1531 25.8336C31.1394 25.8 31.1323 25.7639 31.1323 25.7274C31.1323 25.6909 31.1394 25.6548 31.1531 25.6212C31.176 25.5711 31.2123 25.5289 31.2576 25.4999C31.303 25.4708 31.3554 25.4562 31.4086 25.4577H31.4003ZM31.4003 25.9426C31.4278 25.9427 31.4549 25.9368 31.48 25.9254C31.5036 25.9144 31.5251 25.8988 31.5432 25.8795C31.5775 25.8403 31.5966 25.7891 31.5966 25.736C31.5966 25.6829 31.5775 25.6317 31.5432 25.5925C31.525 25.5733 31.5036 25.5578 31.48 25.5466C31.4548 25.5353 31.4277 25.5295 31.4003 25.5294C31.373 25.5296 31.3459 25.5355 31.3207 25.5466C31.2844 25.5617 31.2532 25.5878 31.2313 25.6215C31.2093 25.6553 31.1976 25.6952 31.1976 25.736C31.1976 25.7768 31.2093 25.8167 31.2313 25.8505C31.2532 25.8842 31.2844 25.9103 31.3207 25.9254C31.3484 25.9378 31.3784 25.9437 31.4086 25.9426H31.4003ZM31.4168 25.6011C31.4425 25.5996 31.4678 25.6077 31.4882 25.6241C31.4967 25.6314 31.5033 25.6406 31.5076 25.6511C31.5119 25.6616 31.5137 25.673 31.513 25.6844C31.5134 25.6939 31.5119 25.7034 31.5085 25.7123C31.5052 25.7212 31.5002 25.7293 31.4937 25.736C31.4779 25.7513 31.4576 25.7604 31.4361 25.7618L31.5157 25.8565H31.4525L31.3784 25.7618H31.3537V25.8565H31.3015V25.604L31.4168 25.6011ZM31.3564 25.6499V25.7188H31.4168C31.4276 25.7223 31.4391 25.7223 31.4498 25.7188C31.4517 25.7148 31.4527 25.7104 31.4527 25.7059C31.4527 25.7014 31.4517 25.697 31.4498 25.693C31.4517 25.689 31.4527 25.6845 31.4527 25.6801C31.4527 25.6756 31.4517 25.6711 31.4498 25.6671C31.4391 25.6636 31.4276 25.6636 31.4168 25.6671L31.3564 25.6499ZM28.3349 24.4849C28.3432 24.2696 28.432 24.0661 28.5822 23.9184C28.7324 23.7706 28.9321 23.6902 29.1384 23.6946C29.3447 23.6989 29.5412 23.7875 29.6856 23.9415C29.8301 24.0954 29.911 24.3024 29.911 24.5179C29.911 24.7335 29.8301 24.9405 29.6856 25.0944C29.5412 25.2483 29.3447 25.337 29.1384 25.3413C28.9321 25.3456 28.7324 25.2653 28.5822 25.1175C28.432 24.9697 28.3432 24.7663 28.3349 24.5509C28.3349 24.528 28.3349 24.5079 28.3349 24.4849ZM9.0443 24.4849V23.1133H8.47297V23.4462C8.37594 23.3158 8.25062 23.2113 8.10734 23.1415C7.96406 23.0716 7.80694 23.0384 7.64893 23.0445C7.28469 23.0445 6.93536 23.1956 6.6778 23.4647C6.42024 23.7338 6.27554 24.0987 6.27554 24.4792C6.27554 24.8597 6.42024 25.2246 6.6778 25.4937C6.93536 25.7628 7.28469 25.9139 7.64893 25.9139C7.80694 25.92 7.96406 25.8868 8.10734 25.8169C8.25062 25.7471 8.37594 25.6426 8.47297 25.5122V25.8451H9.0443V24.4849ZM6.91829 24.4849C6.92726 24.2851 7.01071 24.0968 7.15082 23.9604C7.29093 23.8239 7.47657 23.7502 7.66805 23.7549C7.85953 23.7596 8.04166 23.8423 8.1755 23.9854C8.30934 24.1286 8.38427 24.3207 8.38427 24.5208C8.38427 24.7209 8.30934 24.913 8.1755 25.0562C8.04166 25.1993 7.85953 25.282 7.66805 25.2867C7.47657 25.2914 7.29093 25.2177 7.15082 25.0812C7.01071 24.9448 6.92726 24.7565 6.91829 24.5567C6.91829 24.5337 6.91829 24.5098 6.91829 24.4849Z" fill="#231F20"/>
<path d="M20.3262 2.20923H11.6738V18.4531H20.3262V2.20923Z" fill="#FF5F00"/>
<path d="M12.2237 10.3329C12.2221 8.76826 12.5613 7.22377 13.2156 5.81636C13.87 4.40895 14.8223 3.17553 16.0005 2.20951C14.5417 1.01186 12.7898 0.26712 10.945 0.0603946C9.10026 -0.146331 7.23701 0.1933 5.56826 1.04047C3.89951 1.88764 2.49258 3.20818 1.50826 4.85115C0.523941 6.49412 0.00195313 8.39324 0.00195312 10.3315C0.00195312 12.2697 0.523941 14.1688 1.50826 15.8118C2.49258 17.4547 3.89951 18.7753 5.56826 19.6224C7.23701 20.4696 9.10026 20.8092 10.945 20.6025C12.7898 20.3958 14.5417 19.651 16.0005 18.4534C14.8227 17.4877 13.8706 16.2547 13.2162 14.8478C12.5619 13.441 12.2225 11.897 12.2237 10.3329" fill="#EB001B"/>
<path d="M32 10.3326C32 12.271 31.4778 14.1702 30.4934 15.8132C29.5089 17.4563 28.1017 18.7768 26.4328 19.6238C24.7638 20.4709 22.9004 20.8103 21.0555 20.6033C19.2106 20.3963 17.4587 19.6512 16 18.4531C17.1773 17.4865 18.1292 16.2532 18.7837 14.8463C19.4382 13.4393 19.7783 11.8955 19.7783 10.3312C19.7783 8.76689 19.4382 7.22303 18.7837 5.81607C18.1292 4.40912 17.1773 3.17582 16 2.20923C17.4587 1.01122 19.2106 0.266113 21.0555 0.0590909C22.9004 -0.147932 24.7638 0.191481 26.4328 1.03853C28.1017 1.88558 29.5089 3.20609 30.4934 4.84912C31.4778 6.49215 32 8.39139 32 10.3298V10.3326Z" fill="#F79E1B"/>
<path d="M31.0552 16.7316V16.3987H31.1843V16.3298H30.8574V16.3987H30.9975V16.7316H31.0552ZM31.6897 16.7316V16.3298H31.5908L31.4755 16.6168L31.3601 16.3298H31.2722V16.7316H31.3436V16.4446L31.4507 16.7057H31.5249L31.632 16.4446V16.7488L31.6897 16.7316Z" fill="#F79E1B"/>
</svg>
