<svg width="105" height="65" viewBox="0 0 105 65" fill="none" xmlns="http://www.w3.org/2000/svg">
<g clip-path="url(#clip0_473:10738)">
<path fill-rule="evenodd" clip-rule="evenodd" d="M9.40957 45.8709C5.05033 45.8709 3.06631 47.4905 2.28388 50.8803L-0.203125 61.6524H84.5228C88.882 61.6524 90.866 60.0328 91.6485 56.643L94.1355 45.8709H9.40957ZM19.6091 30.8428H15.4175C8.87864 30.8428 13.6291 12.1235 19.134 12.1235H25.7568C26.8186 12.1235 28.6909 12.3871 29.613 8.84668L31.0381 3.34766H21.9564C17.0383 3.34766 13.2099 5.68286 10.4435 9.59997C5.66509 16.3043 4.04435 26.775 5.19005 31.7844C6.27986 36.4171 9.24191 39.468 13.8806 39.5433L17.4854 39.581H21.9284L23.0182 35.1742C23.8286 32.048 22.0123 30.8428 19.6091 30.8428ZM70.6346 23.0839L72.0039 17.0952H57.3892C54.9581 17.0952 53.8683 17.9992 53.4491 19.8824L52.0799 25.8711H66.6945C69.1257 25.8711 70.2155 24.9671 70.6346 23.0839ZM49.9003 33.63L48.531 39.6186H63.1457C65.5489 39.6186 66.6666 38.7147 67.0858 36.8314L68.455 30.8428H53.8404C51.4372 30.8428 50.3474 31.7467 49.9003 33.63ZM74.0438 9.37399L75.413 3.38532H60.7984C58.3673 3.38532 57.2775 4.28927 56.8583 6.1725L55.4891 12.1612H70.1037C72.5069 12.1612 73.5967 11.2572 74.0438 9.37399ZM51.9681 10.5793C51.3534 5.0049 49.1458 3.38532 43.7806 3.38532H34.0002L28.2996 25.8711H31.9044C34.0561 25.8711 35.1459 25.9087 36.2916 21.7656L38.6668 12.1235H42.2995C45.4013 12.1235 44.7027 17.3589 43.1379 22.4436C41.7407 26.9257 39.3095 30.8804 36.3754 30.8804H30.3116C27.8805 30.8804 26.7627 31.7844 26.3156 33.6676L24.8067 39.6563H29.2497L33.609 39.6186C37.4652 39.581 40.6229 39.2043 44.3115 34.7222C48.2236 29.9388 52.7506 17.6602 51.9681 10.5793ZM101.093 3.34766H92.6265L84.6625 14.76C83.7403 16.0783 82.7902 17.3965 81.8681 18.9408H81.7842L85.7523 3.34766H78.8501L69.5448 39.6186H76.447L79.409 28.2063L82.4828 24.7035L84.914 35.0235C85.6685 38.225 86.4509 39.6186 88.1275 39.6186H93.4089L87.9878 19.3551L101.093 3.34766Z" fill="#00B33C"/>
<path d="M9.11749 54.8021V57.7989H7.88965V49.4915H10.3174C11.0151 49.4915 11.5732 49.7191 11.9638 50.2122C12.3545 50.7053 12.5778 51.3502 12.5778 52.1468C12.5778 52.9434 12.3824 53.5883 11.9638 54.0814C11.5732 54.5745 11.0151 54.8021 10.3174 54.8021H9.11749ZM9.11749 53.5124H10.3174C10.6523 53.5124 10.9034 53.3986 11.0988 53.1331C11.2662 52.8675 11.3499 52.5641 11.3499 52.1847C11.3499 51.7675 11.2662 51.464 11.0988 51.1985C10.9313 50.933 10.6523 50.8192 10.3174 50.8192H9.11749V53.5124ZM16.0659 56.016H13.9172L13.4986 57.7989H12.2708L14.3637 49.4915H15.6194L17.7123 57.7989H16.4845L16.0659 56.016ZM14.2242 54.6883H15.759L15.0055 51.4261H14.9776L14.2242 54.6883ZM22.2051 50.7812H19.4983V52.4123H20.5587C21.2563 52.4123 21.8144 52.6779 22.233 53.171C22.6516 53.6641 22.8469 54.309 22.8469 55.1056C22.8469 55.9022 22.6516 56.5471 22.233 57.0402C21.8144 57.5333 21.2563 57.7989 20.5587 57.7989H18.2146V49.4915H22.2051V50.7812ZM19.4983 53.7021V56.5091H20.5587C20.8936 56.5091 21.1726 56.3574 21.3401 56.0919C21.5075 55.8263 21.6191 55.4849 21.6191 55.0677C21.6191 54.6883 21.5354 54.3469 21.3401 54.0814C21.1447 53.8159 20.8936 53.6641 20.5587 53.6641H19.4983V53.7021ZM28.5955 54.3849C28.5955 55.4091 28.3722 56.2436 27.8978 56.9264C27.4234 57.6092 26.8095 57.9127 26.0561 57.9127C25.3026 57.9127 24.6887 57.5713 24.2143 56.9264C23.7399 56.2815 23.5167 55.4091 23.5167 54.3849V52.9055C23.5167 51.8813 23.7399 51.0468 24.2143 50.364C24.6887 49.6812 25.3026 49.3777 26.0561 49.3777C26.8095 49.3777 27.4234 49.7191 27.8978 50.364C28.3722 51.0088 28.6234 51.8813 28.6234 52.9055V54.3849H28.5955ZM27.3676 52.9055C27.3676 52.2606 27.256 51.7296 27.0049 51.3123C26.7537 50.895 26.4467 50.7054 26.0282 50.7054C25.6096 50.7054 25.2747 50.895 25.0515 51.3123C24.8282 51.7296 24.7166 52.2606 24.7166 52.9055V54.4228C24.7166 55.0677 24.8282 55.6367 25.0515 56.016C25.2747 56.4333 25.6096 56.6229 26.0282 56.6229C26.4467 56.6229 26.7816 56.4333 27.0049 56.016C27.2281 55.5987 27.3676 55.0677 27.3676 54.4228V52.9055ZM33.6184 50.7812H31.8883V57.7989H30.6605V50.7812H28.9303V49.4915H33.5905V50.7812H33.6184ZM37.1624 56.016H35.0137L34.5951 57.7989H33.3673L35.4602 49.4915H36.7159L38.8088 57.7989H37.581L37.1624 56.016ZM35.3207 54.6883H36.8555L36.102 51.4261H36.0741L35.3207 54.6883ZM43.1621 54.1573H40.6227V56.5091H43.5807V57.7989H39.3948V49.4915H43.5807V50.7812H40.6227V52.8675H43.1621V54.1573ZM45.9247 49.4915L47.4874 55.5987H47.5153L49.078 49.4915H50.6686V57.7989H49.4408V55.3332L49.5524 51.6537H49.5245L47.8781 57.7989H47.0688L45.4503 51.6916H45.4224L45.534 55.3332V57.7989H44.3062V49.4915H45.9247ZM53.9615 57.7989V49.4915H56.0265C56.752 49.4915 57.3101 49.6812 57.7008 50.0605C58.0915 50.4398 58.3147 51.0088 58.3147 51.7675C58.3147 52.1468 58.231 52.4882 58.0915 52.7917C57.9519 53.0951 57.7287 53.3227 57.4496 53.4745C57.8124 53.5883 58.0915 53.8159 58.2868 54.1573C58.4821 54.4987 58.5659 54.9159 58.5659 55.3711C58.5659 56.1677 58.3705 56.7747 57.9799 57.1919C57.5892 57.6092 57.059 57.7989 56.3334 57.7989H53.9615ZM55.1893 52.9813H56.0823C56.4171 52.9813 56.6683 52.9055 56.8357 52.7158C57.0032 52.5261 57.0869 52.2606 57.0869 51.9192C57.0869 51.5399 57.0032 51.2364 56.8078 51.0847C56.6404 50.895 56.3613 50.8192 56.0265 50.8192H55.1893V52.9813ZM55.1893 54.1193V56.5091H56.3055C56.6404 56.5091 56.8636 56.3953 57.059 56.2057C57.2543 56.016 57.3101 55.7125 57.3101 55.3711C57.3101 54.9539 57.2264 54.6504 57.0869 54.4228C56.9473 54.1952 56.7241 54.1193 56.3892 54.1193H55.1893ZM64.0911 54.9539C64.119 55.8643 63.9237 56.585 63.5051 57.1161C63.0865 57.6471 62.5284 57.9127 61.775 57.9127C61.0494 57.9127 60.4355 57.6092 59.989 56.9643C59.5426 56.3195 59.2914 55.4849 59.2914 54.4987V52.8675C59.2914 51.8433 59.5146 51.0467 59.9611 50.4019C60.4076 49.757 60.9936 49.4156 61.7192 49.4156C62.4726 49.4156 63.0586 49.6812 63.4772 50.2122C63.8958 50.7433 64.119 51.464 64.0911 52.3744V52.4123H62.8912C62.8912 51.8813 62.8075 51.464 62.6121 51.1605C62.4168 50.8571 62.1098 50.7433 61.7192 50.7433C61.3564 50.7433 61.0494 50.9329 60.8541 51.3502C60.6309 51.7675 60.5192 52.2606 60.5192 52.9055V54.5745C60.5192 55.2194 60.6309 55.7125 60.8541 56.1298C61.0774 56.5471 61.3843 56.7367 61.775 56.7367C62.1657 56.7367 62.4447 56.585 62.6121 56.3195C62.8075 56.0539 62.8912 55.6367 62.8912 55.0677H64.0911V54.9539ZM68.7234 54.1573H66.184V56.5091H69.142V57.7989H64.9562V49.4915H69.142V50.7812H66.184V52.8675H68.7234V54.1573ZM73.8859 50.7812H71.1233V57.7989H69.8955V49.4915H73.8859V50.7812ZM79.5507 59.8473H78.4345V57.7989H74.6952V59.8473H73.579L73.4953 56.5091H73.9696C74.1929 56.2436 74.3882 55.8643 74.5557 55.2953C74.7231 54.7642 74.8068 53.9297 74.8347 52.8675L75.0021 49.4536H78.9647V56.4712H79.6903L79.5507 59.8473ZM76.0067 52.9055C75.9788 53.74 75.8951 54.4607 75.7835 55.0297C75.6719 55.6367 75.5044 56.1298 75.3091 56.5091H77.709V50.7812H76.1184L76.0067 52.9055ZM83.7086 56.016H81.5599L81.1413 57.7989H79.9135L82.0064 49.4915H83.2621L85.3551 57.7989H84.1272L83.7086 56.016ZM81.8669 54.6883H83.4017L82.6482 51.4261H82.6203L81.8669 54.6883ZM87.141 54.9159H85.9132V49.4915H87.141V54.9159ZM87.141 57.7989H85.9132V56.3574H87.141V57.7989Z" fill="white"/>
</g>
<defs>
<clipPath id="clip0_473:10738">
<rect width="105" height="65" fill="white"/>
</clipPath>
</defs>
</svg>
