<svg width="151" height="21" viewBox="0 0 151 21" fill="none" xmlns="http://www.w3.org/2000/svg">
<g clip-path="url(#clip0_473:10783)">
<path d="M119.709 2.55354C123.286 -0.786719 129.649 -0.735391 133.206 2.66212C133.701 3.33925 131.174 4.1447 133.586 3.76764C134.316 3.67288 135.05 4.24341 135.204 4.94029C134.019 5.00741 132.83 4.87316 131.653 4.99754C131.305 5.28576 131.093 5.69638 130.98 6.12675C132.616 6.17215 134.257 6.10108 135.897 6.184C135.98 6.52947 136.605 7.06447 136.101 7.2836C134.223 7.42574 132.338 7.2303 130.464 7.36059C130.432 7.66461 130.084 8.08708 130.474 8.28054C132.486 8.38123 134.502 8.25488 136.518 8.34174C136.629 8.50165 136.73 8.66748 136.823 8.8412C136.425 8.9024 136.057 9.23801 135.647 9.09587C134.781 8.34766 134.763 9.22221 134.532 9.64468C134.379 9.93093 134.231 10.2172 134.114 10.5192C133.956 10.0573 133.934 9.48872 133.533 9.16101C132.834 8.72275 131.849 8.77606 131.241 9.33671C130.86 9.86776 130.686 10.5054 130.47 11.1134C129.953 10.2804 130.282 11.8735 130.213 12.2881C129.085 12.5092 129.91 10.9318 130.037 10.4916C131.026 9.79669 130.484 7.76332 129.075 8.3299C128.885 9.15509 128.755 9.99411 128.616 10.8292C128.385 10.8983 128.25 11.0503 128.214 11.2872C127.86 10.9871 127.476 10.7285 127.122 10.4324C126.673 9.66047 128.155 10.4047 128.426 9.84999C129.15 8.36741 127.589 8.9557 126.873 8.92412C126.442 9.0169 126.171 9.4216 125.846 9.69009C125.763 9.68811 125.595 9.68416 125.512 9.68219C125.086 9.23406 124.711 8.50954 123.893 8.90635C123.053 8.51547 122.33 9.30118 122.501 10.0533C122.59 10.0474 122.768 10.0336 122.857 10.0257C123.229 10.1382 123.931 9.89935 123.935 10.4758C123.173 10.4975 122.518 10.8765 121.927 11.3188C121.877 10.1718 122.224 9.06626 122.309 7.92915C121.705 7.92915 121.149 7.87782 120.562 7.94099C120.083 8.83923 120.154 9.98818 119.396 10.7522C119.337 9.80853 119.383 8.86489 119.319 7.92322C118.813 7.88769 118.31 7.89559 117.812 7.95284C117.719 8.25488 117.638 8.56087 117.56 8.86884C116.694 8.99914 117.361 10.2626 117.157 10.8746C116.64 11.7057 116.848 12.7303 116.599 13.6443L117.448 13.5732C117.499 13.5219 117.604 13.4193 117.657 13.3679C118.079 13.0461 118.156 12.4973 118.308 12.0255C118.308 12.5664 118.328 13.1093 118.372 13.6502C118.633 13.6285 118.959 13.7173 119.177 13.5259C119.853 13.0284 119.986 12.1597 120.267 11.4254C120.306 11.7195 120.348 12.0137 120.39 12.3078C120.34 12.6217 120.291 12.9356 120.229 13.2495C119.84 13.818 120.783 13.9069 121.118 13.4844C121.211 13.4054 121.397 13.2515 121.492 13.1745C122.095 13.3798 122.92 13.976 123.49 13.4607C123.571 13.3995 123.731 13.2771 123.81 13.2179C123.844 13.3126 123.911 13.5061 123.943 13.6028C125.007 13.5022 126.272 13.976 127.263 13.4706C127.562 13.2811 127.866 13.0955 128.139 12.8645C128.294 13.5634 128.994 14.0154 129.665 13.5081C129.932 13.3363 130.225 13.1646 130.296 12.827C131.085 13.6483 132.345 13.9977 133.392 13.4647C133.479 13.4054 133.653 13.287 133.74 13.2258C133.78 13.7766 134.142 13.8694 134.828 13.5041C135.881 13.0264 135.032 11.1569 135.992 10.4383C136.015 11.4175 136.368 12.3197 136.746 13.206C136.575 13.3896 136.415 13.5792 136.251 13.7628C134.46 13.974 132.65 13.7213 130.864 13.8852C130.351 14.128 130.844 14.7064 131.055 15.0065C132.628 15.0795 134.209 14.9729 135.786 15.0479C135.695 15.4862 135.467 15.8929 135.119 16.1791C134.005 16.2383 132.89 16.185 131.78 16.2304C131.869 16.57 132.082 16.8543 132.276 17.1425C132.808 17.1642 133.875 17.2057 134.407 17.2274C134.261 17.7466 133.772 18.0625 133.497 18.5086C132.345 19.1285 131.368 20.0741 130.094 20.4492C127.11 21.5291 123.603 21.3612 120.934 19.5648C116.632 17.253 114.802 11.6702 116.403 7.15331C116.937 6.18992 117.177 4.98766 118.011 4.22564C118.738 3.81699 118.811 2.75688 119.709 2.55354Z" fill="#C30607"/>
<path d="M125.484 11.2576C125.947 11.6129 126.402 11.9841 126.91 12.2743C126.477 12.525 126.008 12.3197 125.551 12.3019C125.448 12.5269 125.343 12.752 125.238 12.9751L125.146 12.8566C125.238 12.3197 125.371 11.7906 125.484 11.2576Z" fill="#C30607"/>
<path d="M123.096 11.6781C123.363 11.6643 123.63 11.6643 123.899 11.6781C123.919 11.9742 123.903 12.4658 123.497 12.452C123.09 12.4658 123.072 11.9742 123.096 11.6781Z" fill="#C30607"/>
<path d="M131.979 12.2683C131.789 11.2891 133 11.7254 133.629 11.6188C133.722 11.6326 133.906 11.6583 133.999 11.6721L134.219 11.7175C134.205 11.7964 134.179 11.9563 134.165 12.0373C134.052 12.1873 133.94 12.3374 133.831 12.4874C133.817 12.3946 133.789 12.2051 133.775 12.1103C133.196 12.2485 132.537 12.7045 131.979 12.2683Z" fill="#C30607"/>
<path d="M137.473 0.51224C141.329 -0.6683 145.743 0.551723 148.372 3.62744C149.025 4.69743 149.953 5.58185 150.282 6.87097C152.507 12.0097 149.613 18.6211 144.295 20.4077C142.253 21.3711 139.687 21.5172 137.548 20.7374C136.092 20.2379 134.533 19.7089 133.496 18.5086C133.771 18.0624 134.26 17.7465 134.406 17.2273C133.874 17.2056 132.808 17.1642 132.276 17.1425C132.082 16.8542 131.868 16.57 131.779 16.2304C132.889 16.185 134.005 16.2383 135.119 16.1791C135.467 15.8928 135.694 15.4861 135.785 15.0479C134.209 14.9729 132.628 15.0795 131.055 15.0064C130.843 14.7064 130.351 14.1279 130.863 13.8851C132.65 13.7213 134.46 13.974 136.25 13.7627C136.415 13.5791 136.575 13.3896 136.745 13.206C137.368 13.7213 138.48 14.1615 139.119 13.4528C139.295 13.3679 139.477 13.2948 139.667 13.2336C140.031 13.8358 140.742 13.9345 141.335 13.6186C141.414 13.6206 141.57 13.6226 141.65 13.6245C142.002 13.5515 142.771 13.893 142.694 13.2909C142.896 13.3936 143.088 13.5199 143.292 13.6285C143.604 13.6265 144.024 13.7706 144.263 13.4962C145.015 12.8309 144.6 11.6109 145.209 10.8331C145.237 11.0068 145.296 11.3503 145.326 11.5221C145.08 12.5348 145.775 14.0253 147.039 13.6522C147.518 13.4192 148.376 13.9187 148.826 13.4784C148.901 13.3975 149.049 13.2376 149.124 13.1567C149.411 11.4905 149.597 9.80653 149.983 8.15811C149.781 7.83435 149.37 7.91924 149.051 7.93109C148.77 8.31407 148.723 8.80366 148.584 9.2439C148.131 8.96159 147.579 8.87276 147.057 8.90829C146.651 9.16888 145.961 9.92103 145.992 8.96357C145.375 9.0603 144.74 9.03464 144.125 8.94383C144.107 9.08202 144.071 9.36037 144.053 9.49856L143.682 9.53015C142.957 8.64968 141.594 8.72864 140.672 9.26364C140.255 9.48672 139.527 9.63478 140.114 10.4619C140.573 10.379 141.036 10.2428 141.507 10.3494C140.991 10.6515 140.532 11.0344 140.152 11.4924C139.847 10.989 139.875 11.8754 139.734 12.0867C139.155 12.1321 138.502 12.3946 137.999 12.0097C137.558 11.299 137.625 10.3257 138.059 9.62885C138.164 9.2281 138.642 9.48079 138.941 9.4117C139.319 9.41367 139.905 9.87365 140.049 9.32089C140.29 8.98528 140.374 8.59835 140.298 8.15811C139.527 7.82251 138.579 7.77908 137.845 8.22129C137.568 8.53518 137.295 8.85104 136.998 9.14716C136.955 9.07214 136.866 8.91816 136.822 8.84117C136.729 8.66745 136.628 8.50162 136.518 8.34171C134.501 8.25485 132.485 8.38119 130.473 8.28051C130.084 8.08704 130.432 7.66458 130.463 7.36056C132.337 7.23027 134.222 7.4257 136.1 7.28357C136.605 7.06444 135.979 6.52944 135.896 6.18397C134.256 6.10105 132.616 6.17212 130.98 6.12672C131.093 5.69635 131.304 5.28573 131.652 4.9975C132.83 4.87313 134.019 5.00737 135.204 4.94025C135.049 4.24338 134.315 3.67285 133.585 3.76761C131.174 4.14467 133.7 3.33922 133.206 2.66209C134.701 2.14091 135.817 0.709655 137.473 0.51224Z" fill="#F8990D"/>
<path d="M64.3726 5.69045C63.7831 5.62135 61.9906 4.52965 64.1412 4.96001C65.8525 4.96594 67.5659 4.93238 69.2773 4.96989C69.667 5.1673 70.1339 5.38643 70.1517 5.88589C70.4821 7.68829 71.0836 9.48279 71.0242 11.3306C70.1478 10.5804 69.8332 9.38605 68.9864 8.62601C68.1832 8.12457 67.5777 7.34478 66.6894 6.9697C65.8407 6.67555 65.2491 5.88984 64.3726 5.69045Z" fill="#F8990D"/>
<path d="M146.841 11.074C146.839 10.5449 147.13 10.1501 147.668 10.462C147.965 10.7956 148.05 11.2279 148.056 11.6623C148.121 12.6631 145.98 12.1933 146.841 11.074Z" fill="#F8990D"/>
<path d="M141.733 12.4934C141.28 12.3078 140.834 11.7807 141.562 11.603C141.646 11.8932 141.687 12.1953 141.733 12.4934Z" fill="#F8990D"/>
<path opacity="0.98" d="M0.463642 3.78333C2.2957 3.78728 4.12974 3.72806 5.96179 3.7932C7.7068 4.16829 8.04512 6.06347 8.38343 7.51842C8.96312 9.27344 9.62393 11.0265 9.97412 12.8447C10.0572 12.8466 10.2234 12.8506 10.3085 12.8526C10.8704 10.9929 11.3195 9.10169 12.0377 7.29337C12.3542 5.92726 12.7222 4.20185 14.2971 3.78728C16.2023 3.77544 18.1096 3.74188 20.0168 3.78926C20.0267 8.78385 20.0287 13.7784 20.0148 18.773C18.438 18.7711 16.8592 18.8165 15.2804 18.7651C15.2507 15.8079 15.3001 12.8486 15.2665 9.88937L14.7205 9.92096C13.6897 12.8387 12.9675 15.8572 11.8675 18.7533C10.7062 18.775 9.54084 18.8323 8.37948 18.7592C7.64151 16.0309 6.64436 13.3777 5.82726 10.6652C5.78175 10.3079 5.68085 9.78079 5.19415 9.88345C5.15656 12.8447 5.20998 15.8079 5.17634 18.7711C3.61138 18.7513 2.04048 18.8559 0.477491 18.7474C0.424072 18.6941 0.317236 18.5914 0.265796 18.5381C0.305365 13.6225 0.0184873 8.68514 0.463642 3.78333Z" fill="#409F38"/>
<path opacity="0.98" d="M22.2069 3.78137C23.7838 3.78137 25.3626 3.73794 26.9414 3.78927C26.9849 6.73075 26.8919 9.6742 26.981 12.6157C27.1867 13.0678 27.5112 12.6492 27.6616 12.3985C28.445 10.529 29.367 8.72464 30.3107 6.93409C30.8785 5.87594 31.2584 4.66184 32.1369 3.80901C33.965 3.75768 35.795 3.74979 37.6251 3.7873C37.635 8.78189 37.637 13.7785 37.6231 18.7731C36.0443 18.7711 34.4655 18.8165 32.8887 18.7652C32.859 15.8079 32.9085 12.8486 32.8748 9.88939C32.0221 9.67026 31.9786 10.756 31.6739 11.2693C30.7222 13.3362 29.8359 15.4348 28.7992 17.4602C28.4866 17.9242 28.2729 18.5559 27.6794 18.7197C25.8572 18.8204 24.0291 18.7967 22.205 18.7671C22.1931 13.7725 22.1931 8.77597 22.2069 3.78137Z" fill="#409F38"/>
<path opacity="0.98" d="M40.0148 10.4934C44.6939 10.4756 49.375 10.4953 54.056 10.4835C54.3943 10.4598 54.7089 10.5921 55.0195 10.7145C54.5744 11.9799 53.6385 13.0203 52.4079 13.5711C49.9883 14.5325 47.2897 13.8139 44.7592 14.0527C44.7157 15.6242 44.7968 17.1995 44.7394 18.771C43.1626 18.771 41.5857 18.8164 40.0109 18.765C40.003 16.0091 39.9891 13.2512 40.0148 10.4934Z" fill="#409F38"/>
<path d="M39.4043 3.78354C43.3553 3.77564 47.3063 3.75787 51.2593 3.79143C52.015 4.41526 53.3386 4.4508 54.0133 5.39444C55.143 6.46246 55.5367 8.15825 55.416 9.6586C55.3606 9.71191 55.2498 9.81456 55.1944 9.86589C51.7855 9.85997 48.3588 10.0712 44.9658 9.66847C43.292 9.03872 41.5351 8.37343 40.4292 6.90664C39.986 5.90969 39.4004 4.90683 39.4043 3.78354Z" fill="#088BCE"/>
<path opacity="0.98" d="M90.7215 4.66794C91.8848 4.39156 93.0323 4.79231 94.166 5.02131C94.3025 5.13384 94.4311 5.25426 94.5518 5.38456C94.346 6.34399 94.3638 7.3666 93.9919 8.28655C92.5061 7.55612 90.4326 7.23828 89.0952 8.35762C89.0675 9.50263 90.3416 10.0929 91.2478 10.4877C92.7732 11.0879 94.1561 12.4875 94.0176 14.2386C93.9108 15.6403 93.2757 17.186 91.964 17.8947C89.5443 19.2016 86.4836 19.0457 83.9492 18.1454C83.9809 17.0912 84.2064 16.0588 84.3489 15.0204C85.1798 15.2336 85.9613 15.6185 86.8259 15.7113C87.9596 15.9008 89.4513 16.0351 90.2209 14.9829C90.579 13.8971 89.1328 13.6345 88.5709 12.9732C87.459 12.4382 86.3926 11.7275 85.7021 10.6871C84.7287 8.70705 85.9989 6.25515 87.8784 5.34902C88.7608 4.91866 89.7619 4.82587 90.7215 4.66794Z" fill="#0C457E"/>
<path opacity="0.98" d="M75.2542 4.98178C76.4987 4.95612 77.7491 4.92256 78.9955 4.97586C77.5433 8.86493 75.8775 12.677 74.3521 16.5444C74.0751 17.2294 73.8733 17.9776 73.4064 18.56C72.1698 18.5817 70.9333 18.6251 69.7007 18.5659C68.8796 15.733 68.2663 12.8468 67.4175 10.0238C67.4215 8.9439 66.7231 8.03184 66.6895 6.96975C67.5778 7.34484 68.1832 8.12462 68.9865 8.62606C69.8332 9.3861 70.1478 10.5805 71.0243 11.3306C71.3745 11.6998 71.3962 12.2605 71.5644 12.7264C71.9739 12.8349 71.2478 14.2978 72.0175 14.0273C72.1658 12.7125 72.8346 11.5379 73.2738 10.308C73.9583 8.54117 74.4906 6.71508 75.2542 4.98178Z" fill="#0C457E"/>
<path opacity="0.98" d="M80.4123 4.97596C81.5816 4.95819 82.7568 4.92463 83.93 4.97201C83.5224 8.94005 82.6282 12.8469 82.1316 16.8051C81.9911 17.3874 82.181 18.1277 81.7102 18.5561C80.535 18.5877 79.3598 18.6173 78.1865 18.5699C78.9106 14.0353 79.5675 9.49084 80.4123 4.97596Z" fill="#0C457E"/>
<path opacity="0.98" d="M99.8151 5.01927C101.03 4.95215 102.259 4.8949 103.477 4.98769C104.067 5.49702 103.614 6.49199 103.954 7.11779C104.9 10.9121 105.464 14.7972 106.451 18.5856C105.351 18.5698 104.249 18.635 103.155 18.558C102.706 18.1098 102.892 17.3853 102.686 16.8227C101.255 16.797 99.825 16.8484 98.4085 16.645C97.8703 17.1346 97.7694 17.9045 97.5162 18.554C96.2796 18.5856 95.0451 18.6172 93.8125 18.5678C94.3783 16.4831 95.5516 14.5505 96.2163 12.4677C97.073 10.7147 97.7101 8.87478 98.541 7.11384C98.9387 6.4071 98.911 5.29565 99.8151 5.01927ZM100.975 9.14919C100.361 10.6555 99.6391 12.2091 99.3502 13.8319C100.211 13.8773 101.069 13.8417 101.936 13.8358C101.948 12.2229 101.384 10.6772 101.117 9.09984L100.975 9.14919Z" fill="#0C457E"/>
<path opacity="0.98" d="M117.156 10.8746C117.359 10.2626 116.693 8.99919 117.559 8.8689C117.47 9.54603 117.284 10.2054 117.156 10.8746Z" fill="#0C457E"/>
<path opacity="0.98" d="M136.822 8.84131C136.866 8.9183 136.955 9.07228 136.998 9.1473C136.421 10.3535 136.219 11.9328 137.196 12.9989C137.778 13.3542 138.427 13.4983 139.119 13.4529C138.48 14.1616 137.368 13.7214 136.745 13.2061C136.367 12.3198 136.015 11.4176 135.991 10.4384C136.476 10.0357 136.638 9.41776 136.822 8.84131Z" fill="#0C457E"/>
<path opacity="0.98" d="M138.488 9.10596C139.009 9.13754 139.529 9.20861 140.049 9.32114C139.905 9.8739 139.319 9.41392 138.941 9.41195C138.829 9.33496 138.601 9.18097 138.488 9.10596Z" fill="#0C457E"/>
<path opacity="0.98" d="M140.114 10.462C139.526 9.63481 140.254 9.48675 140.672 9.26367C140.684 9.52821 140.705 9.79274 140.735 10.0573C141.37 10.0158 142.526 9.50649 142.508 10.4936C142.167 10.4758 141.837 10.4087 141.507 10.3495C141.036 10.2428 140.573 10.3791 140.114 10.462Z" fill="#0C457E"/>
<path opacity="0.98" d="M143.681 9.53037L144.053 9.49878C143.881 10.4247 143.907 11.5479 143.474 12.2843C143.517 11.3643 143.666 10.4523 143.681 9.53037Z" fill="#0C457E"/>
<path opacity="0.98" d="M125.511 9.68237C125.594 9.68435 125.762 9.6883 125.845 9.69027C125.727 10.1345 125.586 10.6319 125.934 11.0169C126.089 11.3624 127.501 11.8697 126.91 12.2744C126.401 11.9842 125.946 11.6131 125.483 11.2577C125.485 10.7326 125.495 10.2075 125.511 9.68237Z" fill="#0C457E"/>
<path opacity="0.98" d="M134.114 10.5193C134.23 10.2173 134.379 9.93103 134.531 9.64478C134.571 10.3515 134.351 11.0326 134.219 11.7176L133.999 11.6722C134.011 11.2853 134.064 10.9023 134.114 10.5193Z" fill="#0C457E"/>
<path opacity="0.98" d="M122.856 10.0257C123.155 9.99604 123.751 9.93879 124.049 9.90918C124.311 10.1204 124.439 10.6061 123.935 10.4758C123.931 9.89931 123.228 10.1382 122.856 10.0257Z" fill="#0C457E"/>
<path opacity="0.98" d="M132.188 9.89356C132.592 9.74352 133.281 10.1305 132.863 10.5529C132.41 10.9951 132.248 10.2371 132.188 9.89356Z" fill="#0C457E"/>
<path opacity="0.98" d="M147.668 10.4621C147.084 9.98435 147.981 9.95671 148.2 10.3338C148.21 10.6694 148.226 11.3366 148.234 11.6703L148.056 11.6624C148.05 11.2281 147.965 10.7957 147.668 10.4621Z" fill="#0C457E"/>
<path opacity="0.98" d="M120.267 11.4254C120.316 10.999 120.421 10.5746 120.712 10.2429C120.728 10.9457 120.494 11.6209 120.389 12.3079C120.348 12.0137 120.306 11.7196 120.267 11.4254Z" fill="#0C457E"/>
<path opacity="0.98" d="M145.325 11.5222C145.642 11.0326 144.876 10.0297 145.83 10.2963C145.602 11.2912 145.365 12.6968 146.439 13.2654C146.922 13.6503 147.462 13.1746 147.984 13.1627C148.267 13.2575 148.54 13.3779 148.825 13.4786C148.376 13.9188 147.517 13.4194 147.039 13.6523C145.774 14.0254 145.08 12.5349 145.325 11.5222Z" fill="#0C457E"/>
<path opacity="0.98" d="M118.422 10.4106C118.745 11.3622 118.64 12.4065 118.81 13.3896C118.901 13.4232 119.085 13.4923 119.176 13.5258C118.959 13.7173 118.632 13.6285 118.371 13.6502C118.327 13.1093 118.308 12.5664 118.308 12.0255C118.345 11.4866 118.385 10.9476 118.422 10.4106Z" fill="#0C457E"/>
<path opacity="0.98" d="M116.599 13.6442C116.848 12.7302 116.64 11.7056 117.157 10.8745C117.386 11.597 116.262 13.4389 117.657 13.3679C117.604 13.4192 117.499 13.5218 117.447 13.5732L116.599 13.6442Z" fill="#0C457E"/>
<path opacity="0.98" d="M128.214 11.2873C128.249 11.0505 128.384 10.8984 128.615 10.8293C128.534 11.5519 128.346 12.2665 128.471 13.0009C128.738 13.4155 129.203 13.4925 129.664 13.5083C128.993 14.0156 128.293 13.5635 128.139 12.8647C128.196 12.3415 128.186 11.8125 128.214 11.2873Z" fill="#0C457E"/>
<path opacity="0.98" d="M130.212 12.2882C130.281 11.8736 129.953 10.2805 130.469 11.1135C130.05 12.7955 131.888 13.8892 133.391 13.4648C132.345 13.9978 131.084 13.6484 130.295 12.8271C130.273 12.6929 130.232 12.4224 130.212 12.2882Z" fill="#0C457E"/>
<path opacity="0.98" d="M139.734 12.0868C139.875 11.8756 139.847 10.9892 140.152 11.4926C140.166 12.0631 140.003 12.6988 140.379 13.1825C140.686 13.3503 141.012 13.4766 141.335 13.6187C140.741 13.9346 140.031 13.8359 139.667 13.2338C139.697 12.8528 139.714 12.4698 139.734 12.0868Z" fill="#0C457E"/>
<path opacity="0.98" d="M121.491 13.1746C121.555 12.5844 121.596 11.9645 121.867 11.4255C121.897 11.769 121.952 12.4541 121.98 12.7956C122.292 13.3602 122.87 13.5517 123.489 13.4609C122.92 13.9761 122.095 13.3799 121.491 13.1746Z" fill="#0C457E"/>
<path opacity="0.98" d="M131.573 11.4807C132.088 11.5162 133.114 11.5853 133.629 11.6189C133 11.7255 131.789 11.2892 131.979 12.2684C131.728 12.0927 131.666 11.7531 131.573 11.4807Z" fill="#0C457E"/>
<path opacity="0.98" d="M141.563 11.6031C141.46 11.2853 142.105 11.5498 142.299 11.4847C142.406 11.9506 142.077 12.2526 141.733 12.4935C141.687 12.1954 141.646 11.8933 141.563 11.6031Z" fill="#0C457E"/>
<path opacity="0.98" d="M133.83 12.4875C133.939 12.3374 134.052 12.1874 134.165 12.0374C134.149 12.4223 134.113 12.8073 134.087 13.1922C134.331 13.3008 134.578 13.3995 134.827 13.5041C134.141 13.8694 133.779 13.7766 133.739 13.2258C133.767 12.981 133.799 12.7342 133.83 12.4875Z" fill="#0C457E"/>
<path opacity="0.98" d="M143.296 12.6257C143.436 13.0936 143.792 13.3818 144.263 13.4963C144.024 13.7707 143.604 13.6266 143.292 13.6286C143.284 13.293 143.284 12.9594 143.296 12.6257Z" fill="#0C457E"/>
<path opacity="0.98" d="M125.145 12.8567L125.238 12.9751C125.653 13.672 126.589 13.4391 127.262 13.4706C126.271 13.976 125.007 13.5022 123.942 13.6029C123.91 13.5062 123.843 13.3127 123.81 13.218C124.263 13.1429 125.26 13.9306 125.145 12.8567Z" fill="#0C457E"/>
<path opacity="0.98" d="M141.649 13.6247C141.77 13.1213 142.298 13.0068 142.694 13.2911C142.771 13.8932 142.002 13.5517 141.649 13.6247Z" fill="#0C457E"/>
<path opacity="0.98" d="M121.117 13.4844C120.782 13.9069 119.839 13.8181 120.228 13.2495C120.525 13.3265 120.866 13.2732 121.117 13.4844Z" fill="#0C457E"/>
<path d="M117.81 7.95386C118.309 7.89661 118.811 7.88871 119.318 7.92425C119.381 8.86592 119.336 9.80956 119.395 10.7532C120.153 9.98921 120.082 8.84025 120.56 7.94201C121.148 7.87884 121.704 7.93017 122.307 7.93017C122.222 9.06728 121.876 10.1728 121.926 11.3198C122.517 10.8776 123.172 10.4985 123.934 10.4768C124.438 10.6071 124.31 10.1215 124.048 9.91024C123.75 9.93985 123.154 9.9971 122.855 10.0267C122.766 10.0346 122.588 10.0484 122.499 10.0544C122.329 9.3022 123.051 8.51649 123.892 8.90737C124.709 8.51057 125.085 9.23508 125.511 9.68321C125.495 10.2083 125.485 10.7335 125.483 11.2586C125.37 11.7916 125.237 12.3207 125.145 12.8576C125.259 13.9316 124.262 13.1439 123.809 13.2189C123.73 13.2781 123.57 13.4005 123.489 13.4617C122.869 13.5525 122.292 13.3611 121.979 12.7964C121.951 12.4549 121.896 11.7699 121.866 11.4264C121.595 11.9653 121.554 12.5852 121.49 13.1755C121.395 13.2525 121.209 13.4065 121.116 13.4854C120.865 13.2742 120.525 13.3275 120.228 13.2505C120.289 12.9366 120.339 12.6227 120.388 12.3088C120.493 11.6218 120.727 10.9467 120.711 10.2439C120.42 10.5755 120.315 11 120.266 11.4264C119.985 12.1608 119.852 13.0294 119.175 13.5269C119.084 13.4933 118.9 13.4242 118.809 13.3907C118.639 12.4075 118.744 11.3632 118.422 10.4117C118.384 10.9486 118.345 11.4876 118.307 12.0265C118.155 12.4984 118.077 13.0472 117.656 13.3689C116.261 13.44 117.385 11.5981 117.155 10.8756C117.284 10.2064 117.47 9.547 117.559 8.86987C117.636 8.5619 117.717 8.25591 117.81 7.95386ZM123.095 11.6791C123.071 11.9752 123.089 12.4668 123.496 12.4529C123.902 12.4668 123.918 11.9752 123.898 11.6791C123.629 11.6653 123.362 11.6653 123.095 11.6791Z" fill="#F5EEEC"/>
<path d="M137.844 8.22126C138.578 7.77905 139.525 7.82249 140.297 8.15809C140.372 8.59833 140.289 8.98526 140.048 9.32086C139.527 9.20834 139.007 9.13727 138.487 9.10568C138.599 9.1807 138.827 9.33468 138.94 9.41168C138.641 9.48077 138.162 9.22808 138.057 9.62883C137.624 10.3257 137.557 11.299 137.998 12.0097C138.501 12.3946 139.153 12.1321 139.733 12.0866C139.713 12.4696 139.696 12.8526 139.666 13.2336C139.476 13.2948 139.294 13.3679 139.118 13.4528C138.425 13.4982 137.776 13.354 137.195 12.9987C136.217 11.9327 136.419 10.3533 136.997 9.14714C137.294 8.85102 137.567 8.53515 137.844 8.22126Z" fill="#F5EEEC"/>
<path d="M149.05 7.9311C149.369 7.91926 149.78 7.83437 149.982 8.15813C149.596 9.80654 149.41 11.4905 149.123 13.1567C149.048 13.2376 148.9 13.3975 148.825 13.4785C148.54 13.3778 148.267 13.2574 147.984 13.1626C147.462 13.1744 146.921 13.6502 146.439 13.2653C145.364 12.6967 145.602 11.2911 145.829 10.2961C144.876 10.0296 145.641 11.0325 145.325 11.5221C145.295 11.3503 145.236 11.0068 145.208 10.8331C144.599 11.6109 145.014 12.8309 144.262 13.4962C143.792 13.3817 143.435 13.0935 143.295 12.6256C143.283 12.9593 143.283 13.2929 143.291 13.6285C143.087 13.5199 142.895 13.3936 142.693 13.2909C142.298 13.0066 141.77 13.1211 141.649 13.6245C141.57 13.6226 141.413 13.6206 141.334 13.6186C141.012 13.4765 140.685 13.3501 140.379 13.1823C140.003 12.6987 140.165 12.063 140.151 11.4925C140.531 11.0345 140.99 10.6515 141.506 10.3494C141.837 10.4087 142.167 10.4758 142.507 10.4935C142.525 9.50647 141.37 10.0158 140.735 10.0573C140.705 9.79272 140.683 9.52819 140.671 9.26365C141.593 8.72866 142.957 8.64969 143.681 9.53016C143.665 10.4521 143.516 11.3641 143.473 12.2841C143.906 11.5477 143.881 10.4245 144.053 9.49857C144.07 9.36038 144.106 9.08203 144.124 8.94384C144.739 9.03465 145.374 9.06031 145.992 8.96358C145.96 9.92104 146.65 9.16889 147.056 8.9083C147.578 8.87277 148.13 8.96161 148.583 9.24391C148.722 8.80367 148.769 8.31409 149.05 7.9311ZM147.667 10.462C147.129 10.15 146.838 10.5449 146.84 11.0739C145.98 12.1933 148.12 12.6631 148.055 11.6622L148.233 11.6701C148.225 11.3365 148.209 10.6692 148.2 10.3336C147.98 9.95658 147.084 9.98422 147.667 10.462ZM141.562 11.603C140.834 11.7807 141.279 12.3078 141.732 12.4934C142.076 12.2525 142.405 11.9505 142.298 11.4846C142.104 11.5497 141.459 11.2852 141.562 11.603Z" fill="#F5EEEC"/>
<path d="M129.074 8.3299C130.482 7.76332 131.024 9.79669 130.035 10.4916C129.909 10.9318 129.084 12.5092 130.211 12.2881C130.231 12.4223 130.273 12.6928 130.294 12.827C130.223 13.1646 129.93 13.3363 129.663 13.5081C129.202 13.4923 128.737 13.4153 128.47 13.0007C128.346 12.2664 128.534 11.5517 128.615 10.8292C128.753 9.99411 128.884 9.1551 129.074 8.3299Z" fill="#F5EEEC"/>
<path d="M125.845 9.69012C126.169 9.42164 126.44 9.01694 126.872 8.92415C127.588 8.95574 129.149 8.36744 128.425 9.85002C128.154 10.4048 126.672 9.66051 127.121 10.4324C127.475 10.7285 127.859 10.9871 128.213 11.2872C128.185 11.8123 128.195 12.3414 128.138 12.8645C127.865 13.0955 127.56 13.2811 127.261 13.4706C126.589 13.439 125.653 13.672 125.237 12.9751C125.342 12.752 125.447 12.527 125.55 12.3019C126.007 12.3197 126.476 12.525 126.909 12.2743C127.501 11.8696 126.088 11.3622 125.934 11.0167C125.586 10.6318 125.726 10.1343 125.845 9.69012Z" fill="#F5EEEC"/>
<path d="M131.24 9.33675C131.847 8.7761 132.832 8.72279 133.531 9.16105C133.932 9.48876 133.954 10.0573 134.112 10.5193C134.063 10.9023 134.009 11.2852 133.998 11.6722C133.905 11.6584 133.721 11.6327 133.628 11.6189C133.113 11.5853 132.086 11.5162 131.572 11.4807C131.665 11.7531 131.726 12.0927 131.978 12.2684C132.535 12.7047 133.194 12.2486 133.774 12.1104C133.788 12.2052 133.816 12.3947 133.829 12.4875C133.798 12.7343 133.766 12.981 133.738 13.2258C133.651 13.287 133.477 13.4055 133.39 13.4647C131.887 13.8891 130.049 12.7955 130.468 11.1135C130.684 10.5054 130.858 9.8678 131.24 9.33675ZM132.187 9.89346C132.247 10.237 132.409 10.995 132.862 10.5528C133.279 10.1304 132.591 9.74343 132.187 9.89346Z" fill="#F5EEEC"/>
<path d="M134.53 9.64465C134.762 9.22218 134.779 8.34763 135.646 9.09584C136.055 9.23797 136.423 8.90237 136.821 8.84117C136.637 9.41762 136.475 10.0355 135.99 10.4383C135.031 11.1568 135.879 13.0264 134.827 13.5041C134.578 13.3995 134.33 13.3008 134.087 13.1922C134.113 12.8072 134.148 12.4223 134.164 12.0373C134.178 11.9564 134.204 11.7965 134.217 11.7175C134.35 11.0325 134.57 10.3514 134.53 9.64465Z" fill="#F5EEEC"/>
</g>
<defs>
<clipPath id="clip0_473:10783">
<rect width="151" height="21" fill="white"/>
</clipPath>
</defs>
</svg>
