<svg width="62" height="62" viewBox="0 0 62 62" fill="none" xmlns="http://www.w3.org/2000/svg">
<path d="M46.0669 32.5478C46.7356 32.5478 47.2778 32.0056 47.2778 31.3369C47.2778 30.6682 46.7356 30.126 46.0669 30.126H37.9248C37.2561 30.126 36.7139 30.6682 36.7139 31.3369C36.7139 32.0056 37.2561 32.5478 37.9248 32.5478H46.0669Z" fill="#7F7F7F"/>
<path d="M61.1492 40.173C59.8924 38.3373 57.5317 37.5954 55.4601 38.3552V9.32461C55.4601 5.98611 52.744 3.27002 49.4055 3.27002H17.4372C14.0987 3.27002 11.3826 5.98611 11.3826 9.32461V15.8219C11.3826 16.4906 11.9249 17.0328 12.5936 17.0328C13.2622 17.0328 13.8045 16.4906 13.8045 15.8219V9.32461C13.8045 7.32151 15.4341 5.69186 17.4372 5.69186H26.398V15.8218C26.398 16.2758 26.652 16.6916 27.0558 16.899C27.4598 17.1063 27.9457 17.0705 28.3144 16.806L33.4214 13.1457L38.5284 16.806C38.7379 16.9563 38.9853 17.0327 39.2339 17.0327C39.4229 17.0327 39.6127 16.9885 39.7869 16.899C40.1908 16.6916 40.4447 16.2759 40.4447 15.8218V5.69186H49.4055C51.4086 5.69186 53.0382 7.32151 53.0382 9.32461V39.3719L44.4402 43.0043C44.5017 42.6998 44.5343 42.385 44.5343 42.0628C44.5343 39.4452 42.4047 37.3156 39.7872 37.3156H32.808L28.8173 35.5478C26.9883 34.7376 25.0466 34.3267 23.0462 34.3267C20.6763 34.3267 18.3205 34.9167 16.2251 36.0129V34.3906C16.2251 33.722 15.6828 33.1797 15.0142 33.1797H13.8045V26.7201C13.8045 26.0514 13.2622 25.5091 12.5936 25.5091C11.9249 25.5091 11.3826 26.0514 11.3826 26.7201V33.1797H1.21092C0.542249 33.1797 0 33.722 0 34.3906V57.5192C0 58.1878 0.542249 58.7301 1.21092 58.7301H15.0142C15.6828 58.7301 16.2251 58.1878 16.2251 57.5192V56.3092H31.515C37.8169 56.3092 44.1302 54.8252 49.7725 52.0177L59.3027 47.2755C60.563 46.6483 61.4891 45.5072 61.8432 44.1448C62.1976 42.7822 61.9445 41.3346 61.1492 40.173V40.173ZM38.0228 13.464L34.1267 10.6716C33.9159 10.5205 33.6686 10.445 33.4214 10.445C33.1741 10.445 32.9268 10.5205 32.716 10.6716L28.8199 13.464V5.69186H38.0228V13.464ZM2.42184 56.3083V35.6015H13.8033V56.3083H2.42184ZM59.4993 43.5352C59.3215 44.2193 58.8566 44.7922 58.2238 45.107L48.6936 49.8492C43.3847 52.4908 37.4445 53.8873 31.515 53.8873H16.2251V38.8257C18.2315 37.4834 20.6299 36.7484 23.0462 36.7484C24.7067 36.7484 26.3182 37.0894 27.8365 37.7618L32.0615 39.6334C32.2159 39.7018 32.3829 39.7372 32.5519 39.7372H39.7873C41.0695 39.7372 42.1126 40.7803 42.1126 42.0625C42.1126 43.3448 41.0695 44.388 39.7873 44.388H29.4742C28.8056 44.388 28.2633 44.9302 28.2633 45.5989C28.2633 46.2676 28.8056 46.8098 29.4742 46.8098H40.0882C41.128 46.8098 42.1409 46.6046 43.0989 46.1999L56.1855 40.6712C57.2507 40.2208 58.4977 40.5871 59.1508 41.5411C59.5502 42.1244 59.6772 42.8512 59.4993 43.5352V43.5352Z" fill="#7F7F7F"/>
<path d="M12.5938 22.4824C12.9122 22.4824 13.2246 22.3529 13.4498 22.1275C13.6762 21.9011 13.8047 21.59 13.8047 21.2715C13.8047 20.9517 13.6762 20.6406 13.4498 20.4141C13.2246 20.1889 12.9122 20.0605 12.5938 20.0605C12.2752 20.0605 11.9629 20.1889 11.7376 20.4141C11.5124 20.6406 11.3828 20.9517 11.3828 21.2715C11.3828 21.59 11.5123 21.9024 11.7376 22.1275C11.9629 22.3529 12.2752 22.4824 12.5938 22.4824V22.4824Z" fill="#7F7F7F"/>
</svg>
