<svg width="86" height="54" viewBox="0 0 86 54" fill="none" xmlns="http://www.w3.org/2000/svg">
<g clip-path="url(#clip0_473:10759)">
<path d="M23.2923 45.0833H16.1257C15.1367 45.0833 14.334 44.2807 14.334 43.2917C14.334 42.3027 15.1367 41.5 16.1257 41.5H23.2923C24.2813 41.5 25.084 42.3027 25.084 43.2917C25.084 44.2807 24.2813 45.0833 23.2923 45.0833Z" fill="#7F7F7F"/>
<path d="M81.5208 45.0833H77.0417C76.0527 45.0833 75.25 44.2806 75.25 43.2916C75.25 42.3026 76.0527 41.4999 77.0417 41.4999H80.0338L82.4489 28.6286C82.4167 22.0424 76.7908 16.4166 69.875 16.4166H58.1109L52.4098 41.4999H62.7083C63.6973 41.4999 64.5 42.3026 64.5 43.2916C64.5 44.2806 63.6973 45.0833 62.7083 45.0833H50.1667C49.622 45.0833 49.106 44.836 48.7656 44.4096C48.4252 43.9868 48.2962 43.4278 48.418 42.8974L54.9325 14.2308C55.1188 13.4102 55.8427 12.8333 56.6812 12.8333H69.875C78.7653 12.8333 86 20.068 86 28.9583L83.2803 43.6213C83.1226 44.4705 82.3844 45.0833 81.5208 45.0833Z" fill="#7F7F7F"/>
<path d="M69.8743 52.2499C64.9365 52.2499 60.916 48.233 60.916 43.2916C60.916 38.3502 64.9365 34.3333 69.8743 34.3333C74.8122 34.3333 78.8327 38.3502 78.8327 43.2916C78.8327 48.233 74.8122 52.2499 69.8743 52.2499ZM69.8743 37.9166C66.9109 37.9166 64.4993 40.3282 64.4993 43.2916C64.4993 46.255 66.9109 48.6666 69.8743 48.6666C72.8378 48.6666 75.2493 46.255 75.2493 43.2916C75.2493 40.3282 72.8378 37.9166 69.8743 37.9166Z" fill="#7F7F7F"/>
<path d="M30.4583 52.2499C25.5205 52.2499 21.5 48.233 21.5 43.2916C21.5 38.3502 25.5205 34.3333 30.4583 34.3333C35.3962 34.3333 39.4167 38.3502 39.4167 43.2916C39.4167 48.233 35.3962 52.2499 30.4583 52.2499ZM30.4583 37.9166C27.4949 37.9166 25.0833 40.3282 25.0833 43.2916C25.0833 46.255 27.4949 48.6666 30.4583 48.6666C33.4218 48.6666 35.8333 46.255 35.8333 43.2916C35.8333 40.3282 33.4218 37.9166 30.4583 37.9166Z" fill="#7F7F7F"/>
<path d="M23.291 12.8333H8.95768C7.96868 12.8333 7.16602 12.0307 7.16602 11.0417C7.16602 10.0527 7.96868 9.25 8.95768 9.25H23.291C24.28 9.25 25.0827 10.0527 25.0827 11.0417C25.0827 12.0307 24.28 12.8333 23.291 12.8333Z" fill="#7F7F7F"/>
<path d="M23.2923 23.5833H5.37565C4.38665 23.5833 3.58398 22.7807 3.58398 21.7917C3.58398 20.8027 4.38665 20 5.37565 20H23.2923C24.2813 20 25.084 20.8027 25.084 21.7917C25.084 22.7807 24.2813 23.5833 23.2923 23.5833Z" fill="#7F7F7F"/>
<path d="M23.2917 34.3333H1.79167C0.802667 34.3333 0 33.5307 0 32.5417C0 31.5527 0.802667 30.75 1.79167 30.75H23.2917C24.2807 30.75 25.0833 31.5527 25.0833 32.5417C25.0833 33.5307 24.2807 34.3333 23.2917 34.3333Z" fill="#7F7F7F"/>
<path d="M50.1673 45.0833H37.6257C36.6367 45.0833 35.834 44.2806 35.834 43.2916C35.834 42.3026 36.6367 41.4999 37.6257 41.4999H48.7376L56.8789 5.66659H16.1257C15.1367 5.66659 14.334 4.86392 14.334 3.87492C14.334 2.88592 15.1367 2.08325 16.1257 2.08325H59.1256C59.6703 2.08325 60.1863 2.3305 60.5267 2.75692C60.8672 3.17975 60.9962 3.73875 60.8743 4.26909L51.916 43.6858C51.7296 44.5063 51.0022 45.0833 50.1673 45.0833Z" fill="#7F7F7F"/>
</g>
<defs>
<clipPath id="clip0_473:10759">
<rect width="86" height="54" fill="white"/>
</clipPath>
</defs>
</svg>
