<svg width="130" height="32" viewBox="0 0 130 32" fill="none" xmlns="http://www.w3.org/2000/svg">
<path d="M7.27938 16.7117L3.72474 24.8719H1.12793L5.03378 16.1466C4.11851 15.6685 3.38417 14.9731 2.82011 14.0495C2.25605 13.1259 1.97934 11.8764 1.97934 10.2791C1.97934 9.17075 2.13898 8.19282 2.45826 7.34529C2.77754 6.49775 3.21389 5.80233 3.76731 5.24817C4.32073 4.69401 4.96993 4.27024 5.70427 3.9986C6.43861 3.71608 7.22617 3.58569 8.03501 3.58569H11.3874V24.8828H9.14185V16.7225H7.27938V16.7117ZM9.14185 5.48722H7.94987C7.50288 5.48722 7.06653 5.57415 6.64082 5.73714C6.21512 5.91099 5.83198 6.17177 5.50206 6.54121C5.17214 6.91065 4.90607 7.39961 4.70386 8.0081C4.50165 8.61659 4.39522 9.36634 4.39522 10.2682C4.39522 11.1266 4.49101 11.8438 4.67193 12.4196C4.85286 12.9955 5.10828 13.4628 5.42756 13.8213C5.74684 14.1799 6.12998 14.4298 6.56633 14.582C7.00267 14.7341 7.46031 14.8101 7.94987 14.8101H9.14185V5.48722Z" fill="#EE2E24"/>
<path d="M22.2112 9.86624V24.872H19.9656V18.146H16.5812V24.872H14.3037V9.86624H16.5812V16.2445H19.9656V9.86624H22.2112ZM33.9075 27.8167H31.8641V24.872H25.5636V27.8167H23.5203V22.9596H24.4249C24.7548 22.1664 25.0209 21.2863 25.2124 20.3192C25.404 19.3522 25.553 18.3634 25.6594 17.342C25.7659 16.3206 25.8297 15.2775 25.8616 14.2126C25.8936 13.1477 25.9042 12.1263 25.9042 11.1267V9.86624H32.7261V22.9705H33.8968V27.8167H33.9075ZM30.4912 11.7678H27.9582V12.0394C27.9582 12.8326 27.9476 13.7019 27.9157 14.6364C27.8837 15.5817 27.8199 16.5379 27.7241 17.505C27.6283 18.472 27.49 19.4282 27.3197 20.3736C27.1494 21.3189 26.9046 22.1773 26.5853 22.9705H30.4912V11.7678ZM43.7945 23.8615C43.3262 24.2418 42.7941 24.5352 42.1875 24.7525C41.5808 24.9698 40.9104 25.0785 40.176 25.0785C38.6541 25.0785 37.4621 24.4809 36.5894 23.2747C35.7167 22.0686 35.2804 20.3084 35.2804 17.9939C35.2804 16.7878 35.3655 15.6686 35.5252 14.6581C35.6954 13.6476 35.9509 12.7674 36.3127 12.0177C36.6746 11.2679 37.1322 10.692 37.6963 10.2791C38.2603 9.86624 38.9308 9.64893 39.7077 9.64893C40.3144 9.64893 40.8678 9.76845 41.368 10.0184C41.8682 10.2683 42.3045 10.6703 42.6557 11.2245C43.007 11.7786 43.273 12.4958 43.4752 13.3868C43.6668 14.2669 43.7626 15.3426 43.7626 16.614V17.8961H37.6324C37.6324 19.6021 37.8559 20.8951 38.3135 21.7644C38.7712 22.6337 39.4523 23.0792 40.3676 23.0792C41.0061 23.0792 41.5808 22.9705 42.0704 22.7314C42.5706 22.5033 42.9644 22.2751 43.2517 22.0578L43.7945 23.8615ZM39.7077 11.5613C39.0053 11.5613 38.5158 11.9634 38.2178 12.7674C37.9198 13.5715 37.7388 14.6472 37.6643 15.9946H41.4318C41.4318 15.3644 41.3999 14.7668 41.3467 14.2235C41.2935 13.6802 41.1977 13.2021 41.07 12.8109C40.9423 12.4089 40.772 12.1046 40.5485 11.8873C40.325 11.67 40.0377 11.5613 39.7077 11.5613ZM48.3709 17.3963V24.872H46.0933V9.86624H48.3709V16.8095L51.9042 9.86624H54.2137L50.5632 16.9291L54.7352 24.8829H52.2554L48.3709 17.3963ZM60.0671 25.0785C58.492 25.0785 57.2575 24.4374 56.3635 23.1552C55.4695 21.873 55.0225 19.9389 55.0225 17.3637C55.0225 16.1902 55.1289 15.1253 55.3631 14.18C55.5866 13.2238 55.9165 12.4197 56.3528 11.7569C56.7892 11.0941 57.332 10.5725 57.9812 10.2031C58.6304 9.83365 59.386 9.64893 60.2374 9.64893C60.8973 9.64893 61.4294 9.72499 61.8445 9.87711C62.2489 10.0292 62.6214 10.214 62.9513 10.4313L62.632 12.637C62.3234 12.3545 61.9509 12.1046 61.5358 11.8873C61.1208 11.67 60.6738 11.5613 60.2055 11.5613C59.386 11.5613 58.7155 12.0286 58.194 12.9739C57.6725 13.9084 57.4065 15.3426 57.4065 17.255C57.4065 19.1457 57.63 20.6126 58.0663 21.6449C58.5027 22.6771 59.1944 23.1878 60.1203 23.1878C60.6844 23.1878 61.174 23.09 61.5784 22.8944C61.9828 22.6988 62.3234 22.4815 62.6001 22.2316L63.1216 23.9593C62.7278 24.2961 62.2914 24.5678 61.8125 24.7742C61.3336 24.9807 60.7483 25.0785 60.0671 25.0785Z" fill="black"/>
<path d="M78.5954 24.8721H69.6662L69.464 28.4143H68.3252V23.6877H68.9425C69.4427 23.253 69.8365 22.4707 70.1132 21.3624C70.3899 20.2541 70.6027 18.9284 70.7517 17.3963C70.9114 15.8099 71.0178 13.8541 71.071 11.5396C71.1242 9.2252 71.1774 6.57393 71.22 3.59668H78.5102V23.6985H79.9364V28.4361H78.7976L78.5954 24.8721ZM77.0416 4.77019H72.5184C72.4758 7.49753 72.4226 9.89889 72.3481 11.9525C72.2736 14.0171 72.1778 15.8208 72.0608 17.3746C71.9224 18.9936 71.7309 20.3193 71.4967 21.3624C71.2519 22.4055 70.9327 23.177 70.5495 23.6768H77.0522V4.77019H77.0416Z" fill="black"/>
<path d="M82.7356 17.6026C82.7782 19.678 83.0549 21.2536 83.5764 22.3402C84.0979 23.4267 84.8961 23.97 85.971 23.97C86.4605 23.97 86.8862 23.894 87.2587 23.731C87.6312 23.568 87.9399 23.3724 88.1953 23.1551C88.4826 22.9378 88.7381 22.6553 88.9509 22.3402L89.3873 23.4702C89.1531 23.8071 88.8764 24.1004 88.5465 24.3286C88.2591 24.5459 87.8973 24.7415 87.4716 24.9045C87.0459 25.0675 86.535 25.1544 85.9497 25.1544C84.3959 25.1544 83.2465 24.4699 82.5121 23.1008C81.7778 21.7317 81.4053 19.8193 81.4053 17.3527C81.4053 16.1249 81.5117 15.0274 81.7246 14.0604C81.9374 13.0933 82.2354 12.2784 82.6185 11.6047C83.0017 10.931 83.4487 10.4203 83.9702 10.0726C84.4916 9.72488 85.0663 9.55103 85.6943 9.55103C86.3328 9.55103 86.9075 9.72488 87.4184 10.0617C87.9186 10.3986 88.3443 10.9093 88.6742 11.5829C89.0041 12.2566 89.2383 13.0933 89.3766 14.1038C89.515 15.1035 89.5256 16.277 89.4086 17.6026H82.7356ZM85.6836 10.7571C84.9067 10.7571 84.2362 11.2461 83.6828 12.224C83.1294 13.202 82.8207 14.6254 82.7675 16.5052H88.1102C88.2272 14.5059 88.0356 13.0498 87.5461 12.1371C87.0565 11.2244 86.418 10.7571 85.6836 10.7571Z" fill="black"/>
<path d="M98.37 17.7005H93.3573V24.8829H91.9844V9.86621H93.3573V16.5053H98.37V9.86621H99.7429V24.872H98.37V17.7005Z" fill="black"/>
<path d="M102.978 9.86621H104.35V15.4295H105.425C106.83 15.4295 107.948 15.8207 108.778 16.5922C109.619 17.3637 110.034 18.5372 110.034 20.1019C110.034 21.6883 109.597 22.8835 108.725 23.6767C107.852 24.4699 106.724 24.872 105.34 24.872H102.978V9.86621ZM104.35 16.5379V23.7745H105.223C106.255 23.7745 107.086 23.492 107.735 22.927C108.384 22.362 108.693 21.4384 108.693 20.1453C108.693 18.874 108.405 17.9613 107.82 17.3854C107.235 16.8204 106.415 16.5379 105.372 16.5379H104.35Z" fill="black"/>
<path d="M113.738 11.0506V24.872H112.397V9.86621H118.613V11.0615H113.738V11.0506Z" fill="black"/>
<path d="M127.562 14.4189C127.562 14.0169 127.573 13.6583 127.594 13.3323C127.616 13.0063 127.647 12.6804 127.679 12.3652H127.594C127.498 12.7021 127.381 13.0281 127.243 13.3323C127.105 13.6365 126.956 13.9625 126.807 14.2994L122.028 24.8719H120.857V9.86609H122.145V20.2865C122.145 20.6885 122.135 21.0471 122.113 21.3839C122.092 21.7208 122.06 22.0576 122.028 22.3944H122.113C122.209 22.0576 122.326 21.7208 122.464 21.3948C122.603 21.0688 122.741 20.732 122.901 20.3951L127.679 9.85522H128.871V24.861H127.562V14.4189Z" fill="black"/>
</svg>
