<svg width="67" height="16" viewBox="0 0 67 16" fill="none" xmlns="http://www.w3.org/2000/svg">
<path fill-rule="evenodd" clip-rule="evenodd" d="M5.84632 3.76606H10.4246C12.8828 3.76606 13.8081 4.9927 13.6651 6.79482C13.43 9.77232 11.6053 11.416 9.18374 11.416H7.96175C7.62966 11.416 7.4063 11.6315 7.31649 12.2198L6.79176 15.633C6.75749 15.8543 6.63931 15.9824 6.46204 15.9999H3.59144C3.32081 15.9999 3.22508 15.7961 3.29599 15.3546L5.0486 4.41258C5.11833 3.97458 5.36178 3.76489 5.84632 3.76489" fill="#009EE3"/>
<path fill-rule="evenodd" clip-rule="evenodd" d="M25.7232 3.56342C27.2678 3.56342 28.6931 4.38934 28.4981 6.44773C28.2617 8.89404 26.9322 10.2477 24.8345 10.2535H23.0015C22.738 10.2535 22.6103 10.4655 22.5418 10.9L22.1872 13.1215C22.1341 13.457 21.9591 13.6224 21.7015 13.6224H19.9974C19.7255 13.6224 19.631 13.4512 19.6913 13.0679L21.1012 4.16335C21.1709 3.72534 21.3375 3.56226 21.6412 3.56226L25.7232 3.56342ZM22.946 8.33022H24.3346C25.2032 8.2976 25.7799 7.70467 25.8378 6.63528C25.8733 5.97478 25.4218 5.50183 24.7009 5.50532H23.3927L22.946 8.33022ZM33.1343 12.9409C33.2903 12.8023 33.4486 12.7289 33.4262 12.9013L33.3706 13.3137C33.3423 13.5292 33.4286 13.6434 33.6318 13.6434H35.1469C35.4022 13.6434 35.5263 13.542 35.5889 13.1529L36.5178 7.37733C36.5651 7.08726 36.493 6.94515 36.2696 6.94515H34.608C34.4579 6.94515 34.3846 7.02785 34.3456 7.25385L34.2842 7.60914C34.2523 7.79436 34.166 7.82698 34.0856 7.64059C33.8032 6.98126 33.0823 6.68537 32.0766 6.70867C29.7342 6.75643 28.1589 8.50379 27.9911 10.7427C27.8611 12.4761 29.1209 13.8379 30.7825 13.8379C31.9879 13.8379 32.5268 13.4884 33.1343 12.9409V12.9409ZM31.8662 12.0533C30.8605 12.0533 30.1597 11.2623 30.305 10.2931C30.4504 9.32389 31.3911 8.53291 32.3968 8.53291C33.4026 8.53291 34.1045 9.31923 33.958 10.2931C33.8115 11.267 32.8719 12.0533 31.8662 12.0533V12.0533ZM39.4888 6.92767H37.9525C37.6358 6.92767 37.507 7.16065 37.6074 7.44722L39.5148 12.9526L37.6358 15.5713C37.4786 15.7903 37.6003 15.9895 37.8213 15.9895H39.5479C39.6486 16.001 39.7504 15.9837 39.8414 15.9397C39.9323 15.8957 40.0085 15.8268 40.0608 15.7414L45.9273 7.44722C46.1081 7.19211 46.023 6.92418 45.7264 6.92418H44.0991C43.819 6.92418 43.7067 7.03368 43.546 7.26317L41.0996 10.7579L40.0112 7.25268C39.9438 7.03717 39.7843 6.92534 39.49 6.92534" fill="#113984"/>
<path fill-rule="evenodd" clip-rule="evenodd" d="M52.0357 3.56342C53.5803 3.56342 55.0056 4.38934 54.8106 6.44773C54.5742 8.89404 53.2447 10.2477 51.147 10.2535H49.3152C49.0516 10.2535 48.924 10.4655 48.8555 10.9L48.5009 13.1215C48.4477 13.457 48.2728 13.6224 48.0152 13.6224H46.3099C46.038 13.6224 45.9435 13.4512 46.0038 13.0679L47.4137 4.16335C47.4834 3.72534 47.65 3.56226 47.9537 3.56226L52.0357 3.56342ZM49.2585 8.33022H50.6471C51.5157 8.2976 52.0924 7.70467 52.1515 6.63528C52.187 5.97478 51.7343 5.50183 51.0146 5.50532H49.7075L49.2585 8.33022ZM59.4432 12.9409C59.5992 12.8023 59.7576 12.7289 59.7351 12.9013L59.6796 13.3137C59.6512 13.5292 59.7375 13.6434 59.9408 13.6434H61.4559C61.7111 13.6434 61.8352 13.542 61.8978 13.1529L62.8315 7.37733C62.8787 7.08727 62.8067 6.94515 62.5833 6.94515H60.9217C60.7716 6.94515 60.6983 7.02786 60.6593 7.25385L60.5979 7.60914C60.566 7.79436 60.4797 7.82698 60.3993 7.6406C60.1169 6.98126 59.396 6.68537 58.3902 6.70867C56.0479 6.75643 54.4726 8.50379 54.3036 10.7427C54.1736 12.4773 55.4346 13.8379 57.095 13.8379C58.3004 13.8379 58.8393 13.4884 59.4468 12.9409H59.4432ZM58.1787 12.0533C57.173 12.0533 56.4722 11.2623 56.6175 10.2931C56.7629 9.32389 57.7036 8.53292 58.7093 8.53292C59.7151 8.53292 60.417 9.31923 60.2705 10.2931C60.124 11.267 59.1844 12.0533 58.1787 12.0533V12.0533ZM65.1667 13.6538H63.4176C63.3872 13.6552 63.3569 13.6499 63.3288 13.6383C63.3007 13.6268 63.2755 13.6092 63.2551 13.587C63.2346 13.5647 63.2194 13.5383 63.2106 13.5096C63.2017 13.4809 63.1994 13.4506 63.2037 13.4209L64.7401 3.82785C64.7548 3.76238 64.7915 3.70372 64.8442 3.66142C64.897 3.61912 64.9628 3.59566 65.0308 3.59487H66.7787C66.8092 3.59335 66.8397 3.59852 66.8679 3.61C66.8962 3.62148 66.9215 3.63899 66.9421 3.66127C66.9627 3.68355 66.978 3.71004 66.9869 3.73884C66.9958 3.76765 66.9982 3.79805 66.9938 3.82785L65.4574 13.4209C65.4428 13.4863 65.4061 13.545 65.3533 13.5873C65.3005 13.6296 65.2347 13.6531 65.1667 13.6538" fill="#009EE3"/>
<path fill-rule="evenodd" clip-rule="evenodd" d="M2.98267 0H7.56334C8.86333 0 10.389 0.0407717 11.4125 0.931926C12.0967 1.52719 12.456 2.47426 12.3721 3.49472C12.0908 6.94401 9.99786 8.87659 7.18989 8.87659H4.93029C4.54502 8.87659 4.29093 9.12821 4.1822 9.80852L3.55112 13.7692C3.50976 14.0255 3.39749 14.1769 3.19658 14.1956H0.368523C0.0553452 14.1956 -0.0557443 13.9626 0.0258002 13.4477L2.0585 0.7502C2.14005 0.242301 2.4225 0 2.98267 0Z" fill="#113984"/>
<path fill-rule="evenodd" clip-rule="evenodd" d="M4.24805 9.40654L5.04813 4.41258C5.11785 3.97458 5.36131 3.76489 5.84466 3.76489H10.4242C11.1817 3.76489 11.795 3.88138 12.2749 4.09689C11.8151 7.16759 9.80016 8.87301 7.16238 8.87301H4.90158C4.60377 8.87301 4.38159 9.02328 4.24805 9.40654" fill="#172C70"/>
</svg>
