<svg width="80" height="13" viewBox="0 0 80 13" fill="none" xmlns="http://www.w3.org/2000/svg">
<path d="M11.0124 2.50342C11.3044 2.89911 11.5517 3.329 11.7491 3.78446L6.14902 8.11077L3.80859 6.57322V4.72348L6.14902 6.26102L11.0124 2.50342Z" fill="#21A038"/>
<path d="M1.42029 6.44259C1.42029 6.35958 1.42222 6.27713 1.42609 6.19515L0.00772465 6.12231C0.00289701 6.22856 1.71402e-06 6.33583 1.71402e-06 6.44408C-0.00060176 7.28995 0.158154 8.12758 0.467166 8.90896C0.776175 9.69038 1.22936 10.4001 1.80071 10.9976L2.80679 9.94368C2.36698 9.48463 2.01808 8.93898 1.78014 8.33814C1.54219 7.73731 1.4199 7.0931 1.42029 6.44259Z" fill="url(#paint0_linear)"/>
<path d="M6.14809 1.4882C6.22725 1.4882 6.30592 1.49124 6.38413 1.49528L6.4551 0.00832599C6.35343 0.00326659 6.25106 0.0007372 6.14809 0.0007372C5.34059 -0.000294795 4.54089 0.165842 3.79486 0.489608C3.04882 0.813375 2.37116 1.2884 1.80078 1.88739L2.80686 2.94177C3.24491 2.4807 3.76562 2.11491 4.33903 1.86546C4.91243 1.616 5.52722 1.48779 6.14809 1.4882Z" fill="url(#paint1_linear)"/>
<path d="M6.14735 11.3974C6.06819 11.3974 5.98948 11.3974 5.91082 11.3908L5.83984 12.8773C5.94186 12.8827 6.04438 12.8854 6.14735 12.8854C6.95451 12.8862 7.75382 12.72 8.49946 12.3961C9.2451 12.0723 9.92232 11.5972 10.4923 10.9982L9.48811 9.94434C9.04998 10.4052 8.52933 10.7707 7.95603 11.0201C7.38274 11.2695 6.76807 11.3977 6.14735 11.3974Z" fill="url(#paint2_linear)"/>
<path d="M8.8133 2.35263L10.0086 1.42929C8.91608 0.502135 7.55231 -0.00257369 6.14648 9.86961e-06V1.48798C7.09845 1.48674 8.02831 1.78824 8.8133 2.35263Z" fill="url(#paint3_linear)"/>
<path d="M12.2956 6.44264C12.2963 6.05556 12.264 5.66914 12.199 5.28809L10.8758 6.31008C10.8758 6.35413 10.8758 6.39813 10.8758 6.44264C10.8761 7.13491 10.7376 7.81954 10.4694 8.45213C10.2011 9.08472 9.80891 9.65116 9.31836 10.1147L10.2728 11.2203C10.9105 10.6169 11.4202 9.87976 11.7686 9.05675C12.1171 8.23369 12.2966 7.34307 12.2956 6.44264Z" fill="#21A038"/>
<path d="M6.14859 11.3973C5.48798 11.3975 4.83469 11.2524 4.23099 10.9712C3.62733 10.6901 3.08672 10.2791 2.6442 9.76514L1.58984 10.7649C2.16552 11.4334 2.86883 11.9675 3.65418 12.3328C4.43953 12.6981 5.28936 12.8863 6.14859 12.8853V11.3973Z" fill="url(#paint4_linear)"/>
<path d="M2.9777 2.77052L2.02375 1.66504C1.38581 2.26831 0.875993 3.00537 0.527352 3.82842C0.178717 4.65146 -0.000950503 5.54212 3.78157e-06 6.44263H1.4203C1.42 5.7504 1.55849 5.06577 1.82678 4.43318C2.09507 3.80061 2.48717 3.23415 2.9777 2.77052Z" fill="url(#paint5_linear)"/>
<path d="M35.4777 3.68458L37.2368 2.3418H31.3496V10.4108H37.2368V9.06799H33.0295V7.00111H36.6185V5.65833H33.0295V3.68458H35.4777Z" fill="#21A038"/>
<path d="M27.3888 5.48517H25.3449V3.68403H28.6068L30.3648 2.33716H23.666V10.4061H27.1726C29.1385 10.4061 30.2668 9.4829 30.2668 7.8728C30.2668 6.33245 29.2448 5.48517 27.3888 5.48517ZM27.0969 9.06293H25.3449V6.82712H27.0969C28.1603 6.82712 28.6588 7.2018 28.6588 7.94504C28.6588 8.68825 28.1283 9.06293 27.0969 9.06293Z" fill="#21A038"/>
<path d="M41.5639 2.34058H38.3594V10.4095H40.039V8.12373H41.5639C43.6085 8.12373 44.8733 7.009 44.8733 5.22785C44.8733 3.44674 43.6085 2.34058 41.5639 2.34058ZM41.5285 6.77993H40.039V3.68439H41.5285C42.6039 3.68439 43.1975 4.23441 43.1975 5.23277C43.1975 6.23113 42.6039 6.77993 41.5285 6.77993Z" fill="#21A038"/>
<path d="M21.1448 8.50518C20.7109 8.74863 20.2248 8.87469 19.7314 8.8717C18.2547 8.8717 17.1834 7.77934 17.1834 6.27516C17.1834 4.77095 18.2547 3.67622 19.7314 3.67622C20.2639 3.66685 20.7854 3.83417 21.2197 4.15376L22.3946 3.2572L22.3151 3.1987C21.6298 2.57434 20.714 2.24365 19.6658 2.24365C18.5288 2.24365 17.4979 2.63999 16.7618 3.36106C16.3896 3.73232 16.0953 4.17909 15.8971 4.67349C15.6989 5.16788 15.6011 5.69926 15.6099 6.23455C15.602 6.77527 15.6994 7.31209 15.8961 7.81299C16.0928 8.31388 16.3849 8.76852 16.7549 9.14986C17.4944 9.89956 18.5231 10.3126 19.6519 10.3126C20.8315 10.3126 21.8625 9.88641 22.5605 9.11046L21.5088 8.29867L21.1448 8.50518Z" fill="#21A038"/>
<path d="M51.5336 5.48517H49.4905V3.68403H53.881V2.33716H47.8105V10.4061H51.3126C53.2784 10.4061 54.4067 9.4829 54.4067 7.8728C54.4113 6.33245 53.3896 5.48517 51.5336 5.48517ZM51.2418 9.06293H49.4905V6.82712H51.2418C52.305 6.82712 52.8033 7.2018 52.8033 7.94504C52.8033 8.68825 52.2776 9.06293 51.2418 9.06293Z" fill="#21A038"/>
<path d="M73.5036 10.3944H71.8008V2.32544H73.5036V5.71446H74.4305L76.9333 2.32544H78.8633L75.8945 6.16395L79.3417 10.3944H77.0823L74.5486 7.22096H73.5036V10.3944Z" fill="#21A038"/>
<path d="M60.5935 8.86095H56.9912L56.3806 10.4278H54.5684L57.947 2.35889H59.7588L63.0826 10.4278H61.2042L60.5935 8.86095ZM60.0293 7.39892L58.803 4.2651L57.5699 7.39892H60.0293Z" fill="#21A038"/>
<path d="M65.3749 2.35889V5.72835H68.8988V2.35889H70.6546V10.4278H68.8988V7.2484H65.3749V10.4278H63.6191V2.35889H65.3749Z" fill="#21A038"/>
<defs>
<linearGradient id="paint0_linear" x1="2.08796" y1="10.8119" x2="0.401519" y2="6.16006" gradientUnits="userSpaceOnUse">
<stop offset="0.14" stop-color="#F1E813"/>
<stop offset="0.3" stop-color="#E6E418"/>
<stop offset="0.58" stop-color="#C9DA26"/>
<stop offset="0.89" stop-color="#A2CC39"/>
</linearGradient>
<linearGradient id="paint1_linear" x1="2.2063" y1="2.15048" x2="6.24899" y2="0.680441" gradientUnits="userSpaceOnUse">
<stop offset="0.06" stop-color="#0FA7DF"/>
<stop offset="0.54" stop-color="#0098F8"/>
<stop offset="0.92" stop-color="#0290EA"/>
</linearGradient>
<linearGradient id="paint2_linear" x1="5.74621" y1="11.9873" x2="10.2855" y2="11.0088" gradientUnits="userSpaceOnUse">
<stop offset="0.12" stop-color="#A2CC39"/>
<stop offset="0.28" stop-color="#86C239"/>
<stop offset="0.87" stop-color="#219F38"/>
</linearGradient>
<linearGradient id="paint3_linear" x1="5.85106" y1="0.498361" x2="9.7454" y2="1.64509" gradientUnits="userSpaceOnUse">
<stop offset="0.06" stop-color="#0290EA"/>
<stop offset="0.79" stop-color="#0C89CA"/>
</linearGradient>
<linearGradient id="paint4_linear" x1="1.94612" y1="10.5837" x2="6.19863" y2="12.1003" gradientUnits="userSpaceOnUse">
<stop offset="0.13" stop-color="#F1E813"/>
<stop offset="0.3" stop-color="#EAE616"/>
<stop offset="0.53" stop-color="#D8DF1F"/>
<stop offset="0.8" stop-color="#BAD52D"/>
<stop offset="0.98" stop-color="#A2CC39"/>
</linearGradient>
<linearGradient id="paint5_linear" x1="0.529112" y1="6.62274" x2="2.36015" y2="2.07774" gradientUnits="userSpaceOnUse">
<stop offset="0.07" stop-color="#A2CC39"/>
<stop offset="0.26" stop-color="#81C45E"/>
<stop offset="0.92" stop-color="#0FA7DF"/>
</linearGradient>
</defs>
</svg>
