<svg width="49" height="17" viewBox="0 0 49 17" fill="none" xmlns="http://www.w3.org/2000/svg">
<g clip-path="url(#clip0)">
<path d="M19.7418 0.294434L17.2441 16.7146H21.2412L23.7389 0.294434H19.7418Z" fill="#3371B8"/>
<path d="M13.8809 0.294434L10.0687 11.5882L9.61678 9.15464L8.27347 1.75722C8.27347 1.75722 8.10916 0.294434 6.37559 0.294434H0.0739437L0 0.571178C1.47538 0.966476 2.88563 1.60049 4.18193 2.45128L7.65728 16.719H11.8228L18.1819 0.294434H13.8809Z" fill="#3371B8"/>
<path d="M45.3268 16.7145H48.9994L45.7993 0.294345H42.5868C42.1975 0.262357 41.8087 0.363938 41.477 0.584334C41.1453 0.80473 40.888 1.13246 40.7423 1.51993L34.7734 16.7145H38.943L39.7646 14.2765H44.8585L45.3268 16.7145ZM40.9272 10.9073L43.0264 4.75739L44.2095 10.9073H40.9272Z" fill="#3371B8"/>
<path d="M35.0863 4.24341L35.6574 0.729199C34.4966 0.280979 33.276 0.0347844 32.0423 0C30.0582 0 25.3463 0.926873 25.3463 5.43824C25.3463 9.68165 30.8757 9.73437 30.8757 11.9615C30.8757 14.1886 25.9173 13.7933 24.2782 12.4008L23.7031 16.0731C25.1332 16.7131 26.6719 17.0287 28.2219 17C30.9496 17 35.0658 15.4889 35.0658 11.3773C35.0658 7.10749 29.4872 6.71214 29.4872 4.854C29.4872 2.99587 33.3815 3.23747 35.0904 4.24341" fill="#3371B8"/>
<path d="M9.61678 9.15903L8.27347 1.75722C8.27347 1.75722 8.10915 0.294434 6.37559 0.294434H0.0739437L0 0.571178C2.17067 1.16153 4.19586 2.24807 5.93603 3.75593C7.59399 5.17342 8.86992 7.03657 9.63322 9.15464" fill="#FCA047"/>
</g>
<defs>
<clipPath id="clip0">
<rect width="49" height="17" fill="white"/>
</clipPath>
</defs>
</svg>
