<svg width="78" height="14" viewBox="0 0 78 14" fill="none" xmlns="http://www.w3.org/2000/svg">
<path d="M3.75678 7.4032L1.58438 12.0022H0L2.38622 7.084C1.26364 6.5464 0.516743 5.5734 0.516743 3.78C0.516743 1.26 2.20804 0 4.22007 0H6.26774V12.0022H4.90015V7.4032H3.75678ZM4.90015 1.0906H4.16661C3.06334 1.0906 1.99421 1.7794 1.99421 3.7772C1.99421 5.7078 2.96979 6.328 4.16661 6.328H4.90015V1.0906Z" fill="#FF0000"/>
<path d="M12.8732 3.54194V12.0021H11.5027V8.20814H9.4372V12.0021H8.04883V3.54194H9.4372V7.13994H11.5027V3.54194H12.8732ZM20.0126 13.6639H18.7668V12.0021H14.9209V13.6639H13.6751V10.9283H14.2275C15.0456 9.13214 15.1347 6.51414 15.1347 4.26434V3.54194H19.3028V10.9283H20.0156L20.0126 13.6639ZM17.9338 4.59894H16.3806V4.75014C16.3806 6.52954 16.2915 9.13074 15.5431 10.9269H17.9293L17.9338 4.59894ZM23.8451 12.1197C21.9935 12.1197 20.8546 10.7197 20.8546 8.12554C20.8546 5.40534 21.6564 3.42434 23.5615 3.42434C25.0568 3.42434 26.0368 4.48134 26.0368 7.35274V8.07514H22.2919C22.2919 9.98894 22.8621 10.9955 23.9654 10.9955C24.601 10.979 25.216 10.7797 25.728 10.4243L26.0487 11.4309C25.4163 11.889 24.6381 12.1318 23.8407 12.1197H23.8451ZM22.3098 6.99994H24.6069C24.6069 5.55654 24.3574 4.49814 23.5571 4.49814C22.7018 4.49814 22.4003 5.48794 22.3112 6.99994H22.3098ZM28.8448 7.78814V12.0021H27.4549V3.54194H28.8433V7.45354L30.9979 3.54194H32.4041L30.1767 7.52074L32.7233 12.0007H31.2117L28.8448 7.78814ZM32.9045 7.77134C32.9045 5.11834 33.9899 3.42294 36.0911 3.42294C36.6777 3.40259 37.2565 3.55528 37.7467 3.85974L37.5507 5.10154C37.1765 4.79914 36.6434 4.51354 36.0658 4.51354C35.0694 4.51354 34.3567 5.57054 34.3567 7.70274C34.3567 9.83494 34.8913 11.0263 36.0124 11.0263C36.5673 11.0332 37.1057 10.8479 37.5255 10.5055L37.8462 11.4855C37.331 11.9135 36.6631 12.1416 35.9767 12.1239C34.0538 12.1239 32.897 10.6637 32.897 7.77694" fill="black"/>
<path d="M47.299 12.0022H41.8509L41.7262 14H41.0312V11.3148H41.4054C42.0291 10.8276 42.3305 9.485 42.5087 7.7728C42.6869 5.9934 42.7404 3.3404 42.7938 0H47.2485V11.3148H48.1112V14H47.4163L47.299 12.0022ZM46.3546 0.6888H43.5957C43.5422 3.7268 43.4472 6.0438 43.3106 7.7728C43.1502 9.569 42.8651 10.7604 42.3855 11.3148H46.3561L46.3546 0.6888Z" fill="black"/>
<path d="M51.804 11.48C52.1606 11.473 52.5105 11.3874 52.8258 11.2301C53.1412 11.0728 53.4131 10.8482 53.62 10.5742L53.8873 11.2112C53.6408 11.5146 53.3223 11.7592 52.9574 11.9255C52.5925 12.0918 52.1914 12.1752 51.7861 12.1688C49.8825 12.1702 49.002 10.542 49.002 7.77282C49.002 5.00362 50.1052 3.37402 51.6198 3.37402C53.1686 3.37402 54.1649 4.90142 53.8813 7.90722H49.8276C49.8632 10.22 50.5047 11.48 51.804 11.48ZM49.8454 7.28002H53.1047C53.2532 5.03162 52.5345 4.02362 51.6198 4.02362C50.6769 4.02362 49.9107 5.16462 49.838 7.28002" fill="black"/>
<path d="M59.372 7.92284H56.3101V12.0024H55.4727V3.54224H56.3101V7.28444H59.372V3.54224H60.2095V12.0024H59.372V7.92284Z" fill="black"/>
<path d="M62.1875 3.54224H63.0235V6.68104H63.6828C65.3919 6.68104 66.4952 7.55464 66.4952 9.31724C66.4952 11.1134 65.3206 12.0024 63.6293 12.0024H62.1875V3.54224ZM63.0235 7.30264V11.3808H63.5536C64.8173 11.3808 65.6726 10.7942 65.6726 9.33264C65.6726 7.90604 64.9301 7.30124 63.6427 7.30124L63.0235 7.30264Z" fill="black"/>
<path d="M68.7572 4.19744V12.0024H67.9375V3.54224H71.7299V4.19744H68.7572Z" fill="black"/>
<path d="M77.1989 6.10984C77.202 5.72302 77.2258 5.3366 77.2701 4.95204H77.2152C77.0855 5.32694 76.9246 5.69161 76.7341 6.04264L73.8163 12.0024H73.1035V3.54224H73.8875V9.42224C73.8875 9.87584 73.8519 10.244 73.8163 10.6136H73.8697C74.0039 10.2308 74.1646 9.85664 74.3508 9.49364L77.2701 3.54224H77.9992V12.0024H77.1989V6.10984Z" fill="black"/>
</svg>
