<svg width="205" height="185" viewBox="0 0 205 185" fill="none" xmlns="http://www.w3.org/2000/svg">
<rect width="205" height="185" fill="#F9F9F9"/>
<g clip-path="url(#clip0_1201_20052)">
<path d="M120.561 81.4394C121.147 82.0252 121.147 82.9749 120.561 83.5607C119.975 84.1465 119.025 84.1465 118.439 83.5607C117.854 82.9749 117.854 82.0252 118.439 81.4394C119.025 80.8535 119.975 80.8535 120.561 81.4394Z" fill="#131313"/>
<path d="M122.5 75.0002H114.744C114.124 73.2541 112.456 72.0002 110.5 72.0002H95.5002C93.5729 72.0002 91.9343 73.2237 91.2939 74.9307L93.7074 77.3442C93.8781 77.1007 94.0002 76.8204 94.0002 76.5003C94.0002 75.6727 94.6726 75.0003 95.5002 75.0003H110.5C111.328 75.0003 112 75.6727 112 76.5003C112 77.3294 112.671 78.0002 113.5 78.0002H122.5C123.328 78.0002 124 78.6726 124 79.5002V106.5C124 106.82 123.877 107.1 123.707 107.344L125.845 109.482C126.555 108.686 127 107.648 127 106.5V79.5001C127 77.0187 124.982 75.0002 122.5 75.0002Z" fill="#131313"/>
<path d="M114.046 97.6832C114.659 96.2432 115 94.661 115 93C115 86.3833 109.617 81 103 81C101.339 81 99.7569 81.3407 98.3169 81.9536L100.699 84.3354C101.438 84.1386 102.2 83.9999 103 83.9999C107.963 83.9999 112 88.037 112 92.9999C112 93.8002 111.861 94.5622 111.665 95.3012C111.665 95.3013 114.046 97.6832 114.046 97.6832Z" fill="#131313"/>
<path d="M79 71.1212L82.9358 75.0571C80.7228 75.3379 79 77.2118 79 79.5001V106.5C79 108.982 81.0186 111 83.5 111H118.879L124.879 117L127 114.879L81.1211 69L79 71.1212ZM83.5 108C82.6724 108 82.0001 107.328 82.0001 106.5V79.5001C82.0001 78.6725 82.6724 78.0002 83.5 78.0002H85.8789L93.5872 85.7084C92.0033 87.7354 91.0001 90.2342 91.0001 93.0002C91.0001 99.6169 96.3834 105 103 105C105.766 105 108.272 104.004 110.3 102.421L115.879 108L83.5 108ZM95.7164 87.8377L108.17 100.292C106.704 101.344 104.939 102 103 102C98.0371 102 94.0001 97.9631 94.0001 93.0002C93.9999 91.0616 94.6639 89.3033 95.7164 87.8377Z" fill="#131313"/>
</g>
<defs>
<clipPath id="clip0_1201_20052">
<rect width="48" height="48" fill="white" transform="translate(79 69)"/>
</clipPath>
</defs>
</svg>
