<svg width="50" height="32" viewBox="0 0 50 32" fill="none" xmlns="http://www.w3.org/2000/svg">
<path d="M45.125 3.36841H2.875C1.97754 3.36841 1.25 4.07533 1.25 4.94736V27.0526C1.25 27.9246 1.97754 28.6316 2.875 28.6316H45.125C46.0225 28.6316 46.75 27.9246 46.75 27.0526V4.94736C46.75 4.07533 46.0225 3.36841 45.125 3.36841Z" stroke="#7F7F7F" stroke-width="2" stroke-linecap="round" stroke-linejoin="round"/>
<path d="M24 22.3157C27.5899 22.3157 30.5 19.488 30.5 15.9999C30.5 12.5118 27.5899 9.68408 24 9.68408C20.4101 9.68408 17.5 12.5118 17.5 15.9999C17.5 19.488 20.4101 22.3157 24 22.3157Z" stroke="#7F7F7F" stroke-width="2" stroke-linecap="round" stroke-linejoin="round"/>
<path d="M33.75 3.36841L46.75 14.421" stroke="#7F7F7F" stroke-width="2" stroke-linecap="round" stroke-linejoin="round"/>
<path d="M33.75 28.6315L46.75 17.5789" stroke="#7F7F7F" stroke-width="2" stroke-linecap="round" stroke-linejoin="round"/>
<path d="M14.25 3.36841L1.25 14.421" stroke="#7F7F7F" stroke-width="2" stroke-linecap="round" stroke-linejoin="round"/>
<path d="M14.25 28.6315L1.25 17.5789" stroke="#7F7F7F" stroke-width="2" stroke-linecap="round" stroke-linejoin="round"/>
</svg>
