<svg width="154" height="25" viewBox="0 0 154 25" fill="none" xmlns="http://www.w3.org/2000/svg">
<path d="M21.1994 4.81421C21.7615 5.57516 22.2375 6.40188 22.6175 7.27775L11.8373 15.5976L7.33203 12.6408V9.08356L11.8373 12.0404L21.1994 4.81421Z" fill="#21A038"/>
<path d="M2.73406 12.3898C2.73406 12.2302 2.73778 12.0717 2.74522 11.914L0.0148699 11.7739C0.00557674 11.9782 3.2995e-06 12.1845 3.2995e-06 12.3927C-0.00115839 14.0194 0.304446 15.6302 0.899294 17.1329C1.49414 18.6356 2.36651 20.0005 3.46637 21.1494L5.40308 19.1227C4.55644 18.2399 3.8848 17.1906 3.42676 16.0351C2.96872 14.8797 2.73332 13.6408 2.73406 12.3898Z" fill="url(#paint0_linear_473:10839)"/>
<path d="M11.8354 2.86174C11.9878 2.86174 12.1392 2.86758 12.2897 2.87536L12.4264 0.0158237C12.2306 0.00609411 12.0336 0.00122989 11.8354 0.00122989C10.2809 -0.000754714 8.74151 0.31874 7.30539 0.941367C5.86927 1.564 4.56477 2.4775 3.4668 3.62941L5.4035 5.65706C6.24675 4.77038 7.2491 4.06695 8.35292 3.58723C9.45673 3.10751 10.6402 2.86095 11.8354 2.86174Z" fill="url(#paint1_linear_473:10839)"/>
<path d="M11.8351 21.9181C11.6827 21.9181 11.5312 21.9181 11.3798 21.9054L11.2432 24.764C11.4396 24.7744 11.6369 24.7796 11.8351 24.7796C13.3889 24.7813 14.9276 24.4616 16.3629 23.8388C17.7983 23.216 19.1019 22.3023 20.1991 21.1504L18.2661 19.1238C17.4227 20.01 16.4204 20.713 15.3168 21.1926C14.2132 21.6721 13.03 21.9187 11.8351 21.9181Z" fill="url(#paint2_linear_473:10839)"/>
<path d="M16.9647 4.5243L19.2657 2.74864C17.1625 0.965644 14.5373 -0.00494939 11.8311 1.898e-05V2.8615C13.6636 2.85912 15.4536 3.43892 16.9647 4.5243Z" fill="url(#paint3_linear_473:10839)"/>
<path d="M23.6686 12.3897C23.6701 11.6453 23.6079 10.9022 23.4827 10.1694L20.9355 12.1348C20.9355 12.2195 20.9355 12.3041 20.9355 12.3897C20.9362 13.721 20.6696 15.0376 20.1532 16.2541C19.6367 17.4706 18.8818 18.56 17.9375 19.4515L19.7748 21.5775C21.0025 20.4171 21.9835 18.9996 22.6543 17.4169C23.3252 15.8341 23.6707 14.1213 23.6686 12.3897Z" fill="#21A038"/>
<path d="M11.8352 21.9181C10.5635 21.9185 9.3059 21.6394 8.14378 21.0987C6.98173 20.558 5.94106 19.7678 5.0892 18.7793L3.05957 20.7019C4.16775 21.9874 5.52163 23.0147 7.03342 23.7172C8.54521 24.4196 10.1811 24.7816 11.8352 24.7795V21.9181Z" fill="url(#paint4_linear_473:10839)"/>
<path d="M5.73206 5.32807L3.89572 3.20215C2.66769 4.36228 1.68629 5.77971 1.01515 7.3625C0.34403 8.94527 -0.00182972 10.6581 7.27951e-06 12.3898H2.73407C2.73351 11.0586 3.0001 9.74201 3.51655 8.5255C4.033 7.30902 4.78781 6.21967 5.73206 5.32807Z" fill="url(#paint5_linear_473:10839)"/>
<path d="M68.2953 7.08545L71.6814 4.50317H60.3486V20.0204H71.6814V17.4382H63.5823V13.4634H70.4912V10.8811H63.5823V7.08545H68.2953Z" fill="#21A038"/>
<path d="M52.7229 10.548H48.7884V7.08427H55.0677L58.4519 4.49414H45.5566V20.0114H52.3068C56.0912 20.0114 58.2631 18.236 58.2631 15.1396C58.2631 12.1774 56.2959 10.548 52.7229 10.548ZM52.1612 17.4283H48.7884V13.1287H52.1612C54.2081 13.1287 55.1678 13.8492 55.1678 15.2785C55.1678 16.7078 54.1466 17.4283 52.1612 17.4283Z" fill="#21A038"/>
<path d="M80.0116 4.50073H73.8428V20.0179H77.076V15.6222H80.0116C83.9474 15.6222 86.382 13.4785 86.382 10.0532C86.382 6.62797 83.9474 4.50073 80.0116 4.50073ZM79.9434 13.0379H77.076V7.08498H79.9434C82.0136 7.08498 83.1561 8.14272 83.1561 10.0626C83.1561 11.9826 82.0136 13.0379 79.9434 13.0379Z" fill="#21A038"/>
<path d="M40.7046 16.3561C39.8693 16.8243 38.9335 17.0667 37.9837 17.0609C35.141 17.0609 33.0788 14.9603 33.0788 12.0676C33.0788 9.17488 35.141 7.06964 37.9837 7.06964C39.0089 7.05162 40.0127 7.37339 40.8487 7.98799L43.1104 6.26382L42.9574 6.15133C41.6381 4.95063 39.8752 4.3147 37.8574 4.3147C35.6688 4.3147 33.6842 5.07689 32.2673 6.46355C31.5508 7.17752 30.9842 8.0367 30.6027 8.98745C30.2212 9.93821 30.0329 10.9601 30.0499 11.9895C30.0347 13.0293 30.2221 14.0617 30.6008 15.025C30.9795 15.9882 31.5417 16.8625 32.254 17.5959C33.6775 19.0376 35.6577 19.8319 37.8308 19.8319C40.1014 19.8319 42.086 19.0123 43.4298 17.5201L41.4053 15.959L40.7046 16.3561Z" fill="#21A038"/>
<path d="M99.203 10.548H95.2701V7.08427H103.722V4.49414H92.0361V20.0114H98.7777C102.562 20.0114 104.734 18.236 104.734 15.1396C104.743 12.1774 102.776 10.548 99.203 10.548ZM98.6413 17.4283H95.2701V13.1287H98.6413C100.688 13.1287 101.647 13.8492 101.647 15.2785C101.647 16.7078 100.635 17.4283 98.6413 17.4283Z" fill="#21A038"/>
<path d="M141.495 19.9892H138.217V4.47192H141.495V10.9893H143.279L148.097 4.47192H151.812L146.097 11.8537L152.733 19.9892H148.384L143.506 13.8864H141.495V19.9892Z" fill="#21A038"/>
<path d="M116.643 17.0403H109.709L108.533 20.0536H105.045L111.549 4.53638H115.037L121.435 20.0536H117.819L116.643 17.0403ZM115.557 14.2288L113.197 8.20216L110.823 14.2288H115.557Z" fill="#21A038"/>
<path d="M125.848 4.53638V11.0161H132.631V4.53638H136.011V20.0536H132.631V13.9393H125.848V20.0536H122.468V4.53638H125.848Z" fill="#21A038"/>
<defs>
<linearGradient id="paint0_linear_473:10839" x1="4.01932" y1="20.7923" x2="0.778655" y2="11.8444" gradientUnits="userSpaceOnUse">
<stop offset="0.14" stop-color="#F1E813"/>
<stop offset="0.3" stop-color="#E6E418"/>
<stop offset="0.58" stop-color="#C9DA26"/>
<stop offset="0.89" stop-color="#A2CC39"/>
</linearGradient>
<linearGradient id="paint1_linear_473:10839" x1="4.24742" y1="4.13535" x2="12.0278" y2="1.30336" gradientUnits="userSpaceOnUse">
<stop offset="0.06" stop-color="#0FA7DF"/>
<stop offset="0.54" stop-color="#0098F8"/>
<stop offset="0.92" stop-color="#0290EA"/>
</linearGradient>
<linearGradient id="paint2_linear_473:10839" x1="11.0629" y1="23.0526" x2="19.8004" y2="21.1672" gradientUnits="userSpaceOnUse">
<stop offset="0.12" stop-color="#A2CC39"/>
<stop offset="0.28" stop-color="#86C239"/>
<stop offset="0.87" stop-color="#219F38"/>
</linearGradient>
<linearGradient id="paint3_linear_473:10839" x1="11.2624" y1="0.958387" x2="18.7578" y2="3.1677" gradientUnits="userSpaceOnUse">
<stop offset="0.06" stop-color="#0290EA"/>
<stop offset="0.79" stop-color="#0C89CA"/>
</linearGradient>
<linearGradient id="paint4_linear_473:10839" x1="3.74541" y1="20.3535" x2="11.9296" y2="23.2751" gradientUnits="userSpaceOnUse">
<stop offset="0.13" stop-color="#F1E813"/>
<stop offset="0.3" stop-color="#EAE616"/>
<stop offset="0.53" stop-color="#D8DF1F"/>
<stop offset="0.8" stop-color="#BAD52D"/>
<stop offset="0.98" stop-color="#A2CC39"/>
</linearGradient>
<linearGradient id="paint5_linear_473:10839" x1="1.01854" y1="12.7362" x2="4.53723" y2="3.99338" gradientUnits="userSpaceOnUse">
<stop offset="0.07" stop-color="#A2CC39"/>
<stop offset="0.26" stop-color="#81C45E"/>
<stop offset="0.92" stop-color="#0FA7DF"/>
</linearGradient>
</defs>
</svg>
